<svg width="97" height="97" xmlns="http://www.w3.org/2000/svg" xmlns:xlink="http://www.w3.org/1999/xlink" xml:space="preserve" overflow="hidden"><g transform="translate(-840 -105)"><g><g><g><g><path d="M931.6 186 892.5 118C891 115.3 887.1 115.3 885.6 118L846.4 186C844.9 188.7 846.8 192 849.9 192L889 192 928.1 192C931.2 192 933.1 188.7 931.6 186ZM886 134 892 134 892 169 886 169 886 134ZM889 183C886.2 183 884 180.8 884 178 884 175.2 886.2 173 889 173 891.8 173 894 175.2 894 178 894 180.8 891.8 183 889 183Z" fill="#3A82F6" fill-rule="nonzero" fill-opacity="1"/></g></g></g></g></g></svg>