<svg width="97" height="96" xmlns="http://www.w3.org/2000/svg" xmlns:xlink="http://www.w3.org/1999/xlink" xml:space="preserve" overflow="hidden"><g transform="translate(-1041 -108)"><g><g><g><g><path d="M1091.44 196 1091.44 187.33C1091.48 185.956 1090.82 184.654 1089.7 183.86 1087.2 181.92 1084.31 180.555 1081.22 179.86 1078.9 179.165 1076.51 178.778 1074.09 178.71 1071.68 178.704 1069.29 179.076 1067 179.81 1063.96 180.628 1061.09 181.983 1058.52 183.81 1057.44 184.635 1056.8 185.918 1056.79 187.28L1056.79 196Z" fill="#3A82F6" fill-rule="nonzero" fill-opacity="1"/><path d="M1082.76 167.67C1082.76 172.458 1078.88 176.34 1074.09 176.34 1069.3 176.34 1065.42 172.458 1065.42 167.67 1065.42 162.882 1069.3 159 1074.09 159 1078.88 159 1082.76 162.882 1082.76 167.67Z" fill="#3A82F6" fill-rule="nonzero" fill-opacity="1"/><path d="M1121.27 117 1080.17 117C1078.83 117.011 1077.75 118.102 1077.76 119.44L1077.76 151.56C1077.74 152.891 1078.81 153.983 1080.14 154 1080.14 154 1080.15 154 1080.15 154L1087.75 154 1087.75 164.09 1096.92 154 1121.22 154C1122.56 153.995 1123.64 152.907 1123.63 151.57 1123.63 151.567 1123.63 151.563 1123.63 151.56L1123.68 119.47C1123.71 118.134 1122.65 117.028 1121.31 117.001 1121.3 117 1121.28 117 1121.27 117ZM1107.27 126.39 1108.82 124.84C1109.09 124.622 1109.49 124.666 1109.71 124.938 1109.89 125.166 1109.89 125.49 1109.71 125.72L1108.16 127.27C1108.04 127.386 1107.88 127.451 1107.72 127.45 1107.55 127.449 1107.39 127.385 1107.27 127.27 1107.06 127.023 1107.08 126.661 1107.3 126.43ZM1100.1 121.59C1100.06 121.245 1100.3 120.929 1100.65 120.886 1100.99 120.842 1101.31 121.086 1101.35 121.432 1101.36 121.484 1101.36 121.537 1101.35 121.59L1101.35 123.77C1101.39 124.115 1101.15 124.43 1100.8 124.474 1100.46 124.518 1100.14 124.274 1100.1 123.928 1100.09 123.876 1100.09 123.823 1100.1 123.77ZM1091.76 124.72C1091.99 124.477 1092.38 124.469 1092.62 124.702 1092.63 124.708 1092.63 124.714 1092.64 124.72L1094.19 126.27C1094.43 126.515 1094.43 126.905 1094.19 127.15 1094.07 127.266 1093.91 127.331 1093.75 127.33 1093.58 127.329 1093.42 127.265 1093.3 127.15L1091.76 125.6C1091.54 125.357 1091.56 124.987 1091.79 124.76ZM1091 134 1088.85 134C1088.5 133.956 1088.26 133.641 1088.3 133.296 1088.34 133.011 1088.56 132.786 1088.85 132.75L1091 132.75C1091.35 132.706 1091.66 132.951 1091.7 133.296 1091.75 133.641 1091.5 133.956 1091.16 134 1091.11 134.007 1091.05 134.007 1091 134ZM1094.18 140.4 1092.63 141.95C1092.36 142.165 1091.96 142.116 1091.75 141.842 1091.57 141.612 1091.57 141.288 1091.75 141.06L1093.29 139.52C1093.56 139.302 1093.96 139.346 1094.18 139.618 1094.36 139.846 1094.36 140.17 1094.18 140.4ZM1100.7 147.5C1099.67 147.505 1098.8 146.72 1098.7 145.69L1102.61 145.69C1102.52 146.686 1101.7 147.459 1100.7 147.5ZM1103.14 144.44 1098.25 144.44C1097.75 144.44 1097.35 144.037 1097.35 143.54 1097.35 143.043 1097.75 142.64 1098.25 142.64L1103.14 142.64C1103.64 142.64 1104.04 143.043 1104.04 143.54 1104.04 144.037 1103.64 144.44 1103.14 144.44ZM1104.33 141.33C1104.31 141.366 1104.28 141.389 1104.24 141.39L1097.15 141.39C1097.12 141.402 1097.09 141.402 1097.06 141.39 1096.55 140.286 1095.92 139.249 1095.16 138.3 1094.62 137.691 1094.19 136.99 1093.9 136.23 1093.58 135.426 1093.41 134.574 1093.38 133.71L1093.38 133.4C1093.53 129.36 1096.93 126.206 1100.97 126.355 1104.8 126.497 1107.87 129.57 1108.01 133.4L1108.01 133.66C1107.98 134.526 1107.81 135.381 1107.5 136.19 1107.2 136.948 1106.78 137.648 1106.24 138.26 1105.48 139.204 1104.84 140.234 1104.33 141.33ZM1109.74 141.81C1109.62 141.926 1109.46 141.991 1109.3 141.99 1109.13 141.989 1108.97 141.925 1108.85 141.81L1107.3 140.26C1107.09 139.986 1107.13 139.59 1107.41 139.376 1107.64 139.195 1107.96 139.197 1108.19 139.38L1109.74 140.92C1109.98 141.168 1109.98 141.562 1109.74 141.81ZM1112.54 134 1110.36 134C1110.01 134.044 1109.7 133.799 1109.66 133.454 1109.61 133.109 1109.86 132.794 1110.2 132.75 1110.25 132.743 1110.31 132.743 1110.36 132.75L1112.54 132.75C1112.89 132.706 1113.2 132.951 1113.24 133.296 1113.29 133.641 1113.04 133.956 1112.7 134 1112.65 134.007 1112.59 134.007 1112.54 134Z" fill="#3A82F6" fill-rule="nonzero" fill-opacity="1"/></g></g></g></g></g></svg>