<svg width="188" height="211" xmlns="http://www.w3.org/2000/svg" xmlns:xlink="http://www.w3.org/1999/xlink" xml:space="preserve" overflow="hidden"><g transform="translate(-540 -930)"><g><path d="M545 977.167C545 960.506 558.506 947 575.167 947L695.832 947C712.493 947 725.999 960.506 725.999 977.167L725.999 1098.83C725.999 1115.49 712.493 1129 695.832 1129L575.167 1129C558.506 1129 545 1115.49 545 1098.83Z" fill="#3A82F7" fill-rule="evenodd" fill-opacity="1"/><g><g><g><path d="M611.281 1035.73C611.281 1043.75 604.775 1050.26 596.75 1050.26 588.724 1050.26 582.219 1043.75 582.219 1035.73 582.219 1027.7 588.724 1021.2 596.75 1021.2 604.775 1021.2 611.281 1027.7 611.281 1035.73Z" fill="#FFFFFF" fill-rule="nonzero" fill-opacity="1"/><path d="M688.781 1035.73C688.781 1043.75 682.275 1050.26 674.25 1050.26 666.224 1050.26 659.719 1043.75 659.719 1035.73 659.719 1027.7 666.224 1021.2 674.25 1021.2 682.275 1021.2 688.781 1027.7 688.781 1035.73Z" fill="#FFFFFF" fill-rule="nonzero" fill-opacity="1"/><path d="M664.562 1105.8 664.562 1091.27C664.562 1089.01 663.594 1086.75 661.656 1085.46 657.781 1082.23 652.615 1079.97 647.448 1078.68 643.896 1077.71 639.698 1076.74 635.5 1076.74 631.625 1076.74 627.427 1077.39 623.552 1078.68 618.385 1079.97 613.542 1082.55 609.344 1085.46 607.406 1087.07 606.437 1089.01 606.437 1091.27L606.437 1105.8 664.562 1105.8Z" fill="#FFFFFF" fill-rule="nonzero" fill-opacity="1"/><path d="M650.031 1058.33C650.031 1066.36 643.525 1072.86 635.5 1072.86 627.474 1072.86 620.969 1066.36 620.969 1058.33 620.969 1050.31 627.474 1043.8 635.5 1043.8 643.525 1043.8 650.031 1050.31 650.031 1058.33Z" fill="#FFFFFF" fill-rule="nonzero" fill-opacity="1"/><path d="M700.406 1062.85C696.531 1059.62 691.365 1057.36 686.198 1056.07 682.646 1055.1 678.448 1054.14 674.25 1054.14 670.375 1054.14 666.177 1054.78 662.302 1056.07 660.365 1056.72 658.427 1057.36 656.49 1058.33L656.49 1058.66C656.49 1064.15 654.229 1069.31 650.677 1072.86 656.812 1074.8 661.656 1077.39 665.531 1080.29 666.5 1081.26 667.469 1081.91 668.115 1083.2L703.312 1083.2 703.312 1068.67C703.312 1066.41 702.344 1064.15 700.406 1062.85Z" fill="#FFFFFF" fill-rule="nonzero" fill-opacity="1"/><path d="M605.469 1080.29 605.469 1080.29C609.99 1077.06 615.156 1074.48 620.323 1072.86 616.771 1068.99 614.51 1064.15 614.51 1058.66 614.51 1058.33 614.51 1058.33 614.51 1058.01 612.573 1057.36 610.635 1056.4 608.698 1056.07 605.146 1055.1 600.948 1054.14 596.75 1054.14 592.875 1054.14 588.677 1054.78 584.802 1056.07 579.635 1057.69 574.792 1059.95 570.594 1062.85 568.656 1064.15 567.687 1066.41 567.687 1068.67L567.687 1083.2 602.562 1083.2C603.531 1081.91 604.177 1081.26 605.469 1080.29Z" fill="#FFFFFF" fill-rule="nonzero" fill-opacity="1"/></g></g></g><g><g><g><path d="M110.208 57.5001C110.568 57.5001 81.4585 28.75 81.4585 28.75L81.4585 46.7188C62.4115 55.3438 4.79167 46.7188 4.79167 46.7188 4.79167 46.7188 45.6407 77.9845 81.4585 74.2709L81.4585 86.2501 110.208 57.5001Z" fill="#FFFFFF" fill-rule="nonzero" fill-opacity="1" transform="matrix(1 -1.22465e-16 -1.2353e-16 -1.0087 578 1047)"/></g></g></g></g></g></svg>