<svg width="188" height="188" xmlns="http://www.w3.org/2000/svg" xmlns:xlink="http://www.w3.org/1999/xlink" xml:space="preserve" overflow="hidden"><g transform="translate(-1017 -944)"><g><path d="M1022 977.334C1022 960.581 1035.58 947 1052.33 947L1173.67 947C1190.42 947 1204 960.581 1204 977.334L1204 1098.67C1204 1115.42 1190.42 1129 1173.67 1129L1052.33 1129C1035.58 1129 1022 1115.42 1022 1098.67Z" fill="#3A82F7" fill-rule="evenodd" fill-opacity="1"/><g><g><g><path d="M137.156 121.275 117.104 101.223C114.377 98.4958 110.688 97.5333 107.158 98.175L100.1 91.1167C106.356 83.0958 110.046 72.8292 110.046 61.9208 110.046 35.4521 88.3896 13.7958 61.9208 13.7958 35.4521 13.7958 13.7958 35.4521 13.7958 61.9208 13.7958 88.3896 35.4521 110.046 61.9208 110.046 72.8292 110.046 82.9354 106.356 91.1167 100.1L98.175 107.158C97.5333 110.688 98.4958 114.377 101.223 117.104L121.275 137.156C123.521 139.402 126.408 140.525 129.296 140.525 132.183 140.525 135.071 139.402 137.317 137.156 141.487 132.665 141.487 125.606 137.156 121.275ZM61.7604 100.26C40.5854 100.26 23.2604 82.9354 23.2604 61.7604 23.2604 40.5854 40.5854 23.2604 61.7604 23.2604 82.9354 23.2604 100.26 40.5854 100.26 61.7604 100.26 82.9354 82.9354 100.26 61.7604 100.26Z" fill="#FFFFFF" fill-rule="nonzero" fill-opacity="1" transform="matrix(1 0 0 1.00649 1036 960)"/></g></g></g><g><g><g><path d="M1098 1028.33C1094.5 1028.33 1091.67 1025.5 1091.67 1022 1091.67 1018.5 1094.5 1015.67 1098 1015.67 1101.5 1015.67 1104.33 1018.5 1104.33 1022 1104.33 1025.5 1101.5 1028.33 1098 1028.33ZM1098 1018.83C1096.25 1018.83 1094.83 1020.25 1094.83 1022 1094.83 1023.75 1096.25 1025.17 1098 1025.17 1099.75 1025.17 1101.17 1023.75 1101.17 1022 1101.17 1020.25 1099.75 1018.83 1098 1018.83Z" fill="#FFFFFF" fill-rule="nonzero" fill-opacity="1"/><path d="M1125.71 1020.42C1124.88 1006.35 1113.65 995.122 1099.58 994.292L1099.58 989.542 1096.42 989.542 1096.42 994.292C1082.35 995.122 1071.12 1006.35 1070.29 1020.42L1065.54 1020.42 1065.54 1023.58 1070.29 1023.58C1071.12 1037.65 1082.35 1048.88 1096.42 1049.71L1096.42 1054.46 1099.58 1054.46 1099.58 1049.71C1113.65 1048.88 1124.88 1037.65 1125.71 1023.58L1130.46 1023.58 1130.46 1020.42ZM1113.96 1023.58C1113.2 1031.19 1107.19 1037.2 1099.58 1037.96L1099.58 1031.5 1096.42 1031.5 1096.42 1037.96C1088.81 1037.2 1082.8 1031.19 1082.04 1023.58L1088.5 1023.58 1088.5 1020.42 1082.04 1020.42C1082.8 1012.81 1088.81 1006.8 1096.42 1006.04L1096.42 1012.5 1099.58 1012.5 1099.58 1006.04C1107.19 1006.8 1113.2 1012.81 1113.96 1020.42L1107.5 1020.42 1107.5 1023.58ZM1096.42 999.042 1096.42 1002.87C1087.07 1003.65 1079.65 1011.07 1078.86 1020.42L1075.04 1020.42C1075.86 1008.97 1084.97 999.856 1096.42 999.042ZM1075.04 1023.58 1078.87 1023.58C1079.65 1032.93 1087.07 1040.35 1096.42 1041.14L1096.42 1044.96C1084.97 1044.14 1075.86 1035.03 1075.04 1023.58ZM1099.58 1044.96 1099.58 1041.14C1108.94 1040.36 1116.36 1032.94 1117.14 1023.58L1120.96 1023.58C1120.14 1035.03 1111.03 1044.14 1099.58 1044.96ZM1117.14 1020.42C1116.36 1011.06 1108.94 1003.64 1099.58 1002.86L1099.58 999.042C1111.03 999.856 1120.14 1008.97 1120.96 1020.42Z" fill="#FFFFFF" fill-rule="nonzero" fill-opacity="1"/></g></g></g></g></g></svg>