<svg width="184" height="188" xmlns="http://www.w3.org/2000/svg" xmlns:xlink="http://www.w3.org/1999/xlink" xml:space="preserve" overflow="hidden"><g transform="translate(-792 -944)"><g><path d="M793 977.167C793 960.506 806.506 947 823.167 947L943.832 947C960.493 947 973.999 960.506 973.999 977.167L973.999 1098.83C973.999 1115.49 960.493 1129 943.832 1129L823.167 1129C806.506 1129 793 1115.49 793 1098.83Z" fill="#3A82F7" fill-rule="evenodd" fill-opacity="1"/><g><g><g><path d="M96.2512 68.1395 97.7298 63.7558 94.3898 60.4157 90.0061 61.8944C88.8665 61.2523 87.6509 60.7555 86.3877 60.4157L84.335 56.3277 79.6729 56.3277 77.6028 60.4332C76.3352 60.776 75.1142 61.2725 73.9671 61.9118L69.5834 60.4332 66.2434 63.7731 67.635 68.1569C66.9675 69.2902 66.4528 70.5069 66.1042 71.7752L61.9988 73.8279 61.9988 78.4204 66.1042 80.4906C66.4425 81.7542 66.9394 82.97 67.5828 84.1089L66.1042 88.4926 69.5834 91.8326 73.9671 90.3366C75.1058 90.9848 76.3215 91.4873 77.5854 91.8326L79.6382 95.9207 84.3002 95.9207 86.3703 91.9022C87.6122 91.5646 88.8094 91.0798 89.9365 90.4584L94.3028 91.9544 97.6429 88.597 96.1642 84.2307C96.8287 83.0831 97.3598 81.8633 97.7472 80.5949L101.835 78.5422 101.835 73.8279 97.7298 71.7578C97.3977 70.4921 96.9006 69.2756 96.2512 68.1395ZM81.9866 83.1521C78.1437 83.1521 75.0283 80.0367 75.0283 76.1938 75.0283 72.3509 78.1437 69.2354 81.9866 69.2354 85.8062 69.2915 88.8889 72.3742 88.9449 76.1938 88.9449 80.0367 85.8295 83.1521 81.9866 83.1521Z" fill="#FFFFFF" fill-rule="nonzero" fill-opacity="1" transform="matrix(1 0 0 1.00599 800 954)"/><path d="M96.9296 130.103 66.9914 130.103C64.2197 130.267 62.1051 132.646 62.2682 135.418 62.4182 137.962 64.4476 139.991 66.9914 140.141L96.9296 140.141C99.7013 139.978 101.816 137.598 101.653 134.827 101.503 132.283 99.4734 130.253 96.9296 130.103Z" fill="#FFFFFF" fill-rule="nonzero" fill-opacity="1" transform="matrix(1 0 0 1.00599 800 954)"/><path d="M81.9692 157.137C87.6491 157.128 92.3712 152.761 92.8242 147.099L71.0968 147.099C71.5583 152.764 76.286 157.128 81.9692 157.137Z" fill="#FFFFFF" fill-rule="nonzero" fill-opacity="1" transform="matrix(1 0 0 1.00599 800 954)"/><path d="M125.407 77.3593 125.407 75.8633C124.963 52.1186 105.665 33.0597 81.917 32.9129 58.1687 33.0597 38.8707 52.1186 38.4274 75.8633L38.4274 77.3593C38.5864 82.5092 39.6096 87.5959 41.4543 92.4067 43.2149 96.9458 45.7716 101.134 49.0041 104.775 52.9877 109.107 57.3367 117.544 59.1806 121.301 59.7446 122.436 60.9053 123.151 62.1727 123.145L101.661 123.145C102.929 123.151 104.089 122.436 104.653 121.301 106.497 117.544 110.846 109.124 114.83 104.775 118.062 101.134 120.619 96.9458 122.38 92.4067 124.224 87.5959 125.248 82.5092 125.407 77.3593ZM115.387 77.2027C115.263 81.2001 114.481 85.1497 113.073 88.8927 111.752 92.2635 109.844 95.3734 107.437 98.0777 103.575 102.674 100.265 107.707 97.5733 113.073L66.2608 113.073C63.5999 107.693 60.3187 102.643 56.4843 98.0256 54.0772 95.3212 52.1689 92.2113 50.848 88.8406 49.4101 85.1025 48.5989 81.1528 48.4474 77.1505L48.4474 75.898C48.759 57.6324 63.5968 42.9568 81.8648 42.846 100.133 42.9568 114.971 57.6324 115.282 75.898Z" fill="#FFFFFF" fill-rule="nonzero" fill-opacity="1" transform="matrix(1 0 0 1.00599 800 954)"/><path d="M82.2997 26.0938C84.2213 26.0938 85.7789 24.5361 85.7789 22.6146L85.7789 10.4375C85.7789 8.51601 84.2213 6.95834 82.2997 6.95834 80.3782 6.95834 78.8205 8.51601 78.8205 10.4375L78.8205 22.6146C78.8205 24.5361 80.3782 26.0938 82.2997 26.0938Z" fill="#FFFFFF" fill-rule="nonzero" fill-opacity="1" transform="matrix(1 0 0 1.00599 800 954)"/><path d="M41.0194 41.3847C42.3764 42.7336 44.568 42.7336 45.925 41.3847 47.2739 40.0277 47.2739 37.8361 45.925 36.4791L37.3141 27.8333C35.888 26.5457 33.6879 26.6579 32.4001 28.084 31.2012 29.412 31.2048 31.4327 32.4084 32.7564Z" fill="#FFFFFF" fill-rule="nonzero" fill-opacity="1" transform="matrix(1 0 0 1.00599 800 954)"/><path d="M121.179 43.0721C122.107 43.0728 122.996 42.7033 123.65 42.0457L132.243 33.3478C133.364 31.7871 133.008 29.6133 131.447 28.4925 130.215 27.6081 128.553 27.6229 127.338 28.5292L118.64 37.2271C117.291 38.5841 117.291 40.7757 118.64 42.1327 119.325 42.776 120.241 43.1149 121.179 43.0721Z" fill="#FFFFFF" fill-rule="nonzero" fill-opacity="1" transform="matrix(1 0 0 1.00599 800 954)"/><path d="M28.2682 72.1927 16.0912 72.1927C14.1697 72.1927 12.612 73.7504 12.612 75.6719 12.612 77.5934 14.1697 79.1511 16.0912 79.1511L28.2682 79.1511C30.1898 79.1511 31.7474 77.5934 31.7474 75.6719 31.7474 73.7504 30.1898 72.1927 28.2682 72.1927Z" fill="#FFFFFF" fill-rule="nonzero" fill-opacity="1" transform="matrix(1 0 0 1.00599 800 954)"/><path d="M41.0194 109.837 32.4084 118.535C30.9489 119.785 30.779 121.981 32.0289 123.441 33.2788 124.9 35.4752 125.07 36.9345 123.82 37.0707 123.704 37.1975 123.577 37.3141 123.441L45.925 114.743C47.1749 113.283 47.005 111.087 45.5454 109.837 44.243 108.722 42.322 108.722 41.0194 109.837Z" fill="#FFFFFF" fill-rule="nonzero" fill-opacity="1" transform="matrix(1 0 0 1.00599 800 954)"/><path d="M123.65 109.176C122.362 107.75 120.162 107.638 118.736 108.926 117.31 110.213 117.197 112.413 118.485 113.84 118.562 113.924 118.642 114.005 118.727 114.082L127.425 122.78C128.654 124.256 130.848 124.456 132.325 123.226 133.801 121.996 134.001 119.803 132.771 118.326 132.604 118.126 132.416 117.945 132.208 117.787Z" fill="#FFFFFF" fill-rule="nonzero" fill-opacity="1" transform="matrix(1 0 0 1.00599 800 954)"/><path d="M147.865 72.071 135.688 72.071C133.766 72.071 132.208 73.6286 132.208 75.5501 132.208 77.4717 133.766 79.0293 135.688 79.0293L147.865 79.0293C149.786 79.0293 151.344 77.4717 151.344 75.5501 151.344 73.6286 149.786 72.071 147.865 72.071Z" fill="#FFFFFF" fill-rule="nonzero" fill-opacity="1" transform="matrix(1 0 0 1.00599 800 954)"/></g></g></g></g></g></svg>