<svg width="183" height="188" xmlns="http://www.w3.org/2000/svg" xmlns:xlink="http://www.w3.org/1999/xlink" xml:space="preserve" overflow="hidden"><g transform="translate(-527 -930)"><g><path d="M528 964.334C528 947.581 541.581 934 558.334 934L679.666 934C696.419 934 710 947.581 710 964.334L710 1085.67C710 1102.42 696.419 1116 679.666 1116L558.334 1116C541.581 1116 528 1102.42 528 1085.67Z" fill="#3A82F7" fill-rule="evenodd" fill-opacity="1"/><g><g><g><path d="M52.9375 49.4083C52.9375 57.3819 46.4736 63.8458 38.5 63.8458 30.5264 63.8458 24.0625 57.3819 24.0625 49.4083 24.0625 41.4347 30.5264 34.9708 38.5 34.9708 46.4736 34.9708 52.9375 41.4347 52.9375 49.4083Z" fill="#FFFFFF" fill-rule="nonzero" fill-opacity="1" transform="matrix(1 0 0 1.00724 542 974)"/><path d="M129.938 49.4083C129.938 57.3819 123.474 63.8458 115.5 63.8458 107.526 63.8458 101.062 57.3819 101.062 49.4083 101.062 41.4347 107.526 34.9708 115.5 34.9708 123.474 34.9708 129.938 41.4347 129.938 49.4083Z" fill="#FFFFFF" fill-rule="nonzero" fill-opacity="1" transform="matrix(1 0 0 1.00724 542 974)"/><path d="M105.875 119.029 105.875 104.592C105.875 102.346 104.912 100.1 102.987 98.8167 99.1375 95.6083 94.0042 93.3625 88.8708 92.0792 85.3417 91.1167 81.1708 90.1542 77 90.1542 73.15 90.1542 68.9792 90.7958 65.1292 92.0792 59.9958 93.3625 55.1833 95.9292 51.0125 98.8167 49.0875 100.421 48.125 102.346 48.125 104.592L48.125 119.029 105.875 119.029Z" fill="#FFFFFF" fill-rule="nonzero" fill-opacity="1" transform="matrix(1 0 0 1.00724 542 974)"/><path d="M91.4375 71.8667C91.4375 79.8403 84.9736 86.3042 77 86.3042 69.0264 86.3042 62.5625 79.8403 62.5625 71.8667 62.5625 63.8931 69.0264 57.4292 77 57.4292 84.9736 57.4292 91.4375 63.8931 91.4375 71.8667Z" fill="#FFFFFF" fill-rule="nonzero" fill-opacity="1" transform="matrix(1 0 0 1.00724 542 974)"/><path d="M141.487 76.3583C137.637 73.15 132.504 70.9042 127.371 69.6208 123.842 68.6583 119.671 67.6958 115.5 67.6958 111.65 67.6958 107.479 68.3375 103.629 69.6208 101.704 70.2625 99.7792 70.9042 97.8542 71.8667L97.8542 72.1875C97.8542 77.6417 95.6083 82.775 92.0792 86.3042 98.175 88.2292 102.987 90.7958 106.837 93.6833 107.8 94.6458 108.763 95.2875 109.404 96.5708L144.375 96.5708 144.375 82.1333C144.375 79.8875 143.413 77.6417 141.487 76.3583Z" fill="#FFFFFF" fill-rule="nonzero" fill-opacity="1" transform="matrix(1 0 0 1.00724 542 974)"/><path d="M47.1625 93.6833 47.1625 93.6833C51.6542 90.475 56.7875 87.9083 61.9208 86.3042 58.3917 82.4542 56.1458 77.6417 56.1458 72.1875 56.1458 71.8667 56.1458 71.8667 56.1458 71.5458 54.2208 70.9042 52.2958 69.9417 50.3708 69.6208 46.8417 68.6583 42.6708 67.6958 38.5 67.6958 34.65 67.6958 30.4792 68.3375 26.6292 69.6208 21.4958 71.225 16.6833 73.4708 12.5125 76.3583 10.5875 77.6417 9.625 79.8875 9.625 82.1333L9.625 96.5708 44.275 96.5708C45.2375 95.2875 45.8792 94.6458 47.1625 93.6833Z" fill="#FFFFFF" fill-rule="nonzero" fill-opacity="1" transform="matrix(1 0 0 1.00724 542 974)"/></g></g></g><g><g><g><path d="M110.283 57.5389C110.643 57.5389 81.5134 28.7695 81.5134 28.7695L81.5134 46.7504C62.4537 55.3812 4.79491 46.7504 4.79491 46.7504 4.79491 46.7504 45.6715 78.0371 81.5134 74.3211L81.5134 86.3083 110.283 57.5389Z" fill="#FFFFFF" fill-rule="nonzero" fill-opacity="1" transform="matrix(1.00801 -1.23446e-16 -1.22465e-16 -1 561 1034)"/></g></g></g></g></g></svg>