<svg width="98" height="97" xmlns="http://www.w3.org/2000/svg" xmlns:xlink="http://www.w3.org/1999/xlink" xml:space="preserve" overflow="hidden"><g transform="translate(-718 -100)"><g><g><g><g><path d="M768.15 138.13 768.15 138.13 773.78 140.46C773.981 136.765 777.139 133.933 780.834 134.134 783.408 134.274 785.674 135.879 786.66 138.26 787.615 140.644 787.164 143.362 785.49 145.31L792.27 148.12 792.39 148.17 802.38 124 778.14 114 774.37 123.27 774.08 123.96 774 123.64C772.899 120.996 769.868 119.74 767.22 120.83 766.059 121.331 765.113 122.228 764.55 123.36 763.614 126.063 765.046 129.014 767.749 129.95 768.948 130.366 770.258 130.326 771.43 129.84L771.75 129.71 771.56 130.17Z" fill="#3A82F6" fill-rule="nonzero" fill-opacity="1"/><path d="M765.62 173.6C768.242 172.732 769.664 169.904 768.796 167.282 767.929 164.661 765.1 163.239 762.479 164.106 761.483 164.436 760.615 165.07 760 165.92L760 156.92 753.93 156.92C753.974 157.252 753.997 157.585 754 157.92 754 162.338 750.418 165.92 746 165.92 741.582 165.92 738 162.338 738 157.92 738.003 157.585 738.026 157.252 738.07 156.92L732 156.92 732 182.92 760 182.92 760 171.92C760.112 172.074 760.232 172.22 760.36 172.36 760.414 172.462 760.477 172.56 760.55 172.65 761.732 173.782 763.418 174.218 765 173.8 765.17 173.8 765.33 173.7 765.49 173.65Z" fill="#3A82F6" fill-rule="nonzero" fill-opacity="1"/><path d="M778 156.9C778.155 156.787 778.302 156.663 778.44 156.53 778.549 156.488 778.648 156.423 778.73 156.34 779.959 155.023 780.366 153.137 779.79 151.43L779.79 151.28C778.861 148.68 776 147.325 773.399 148.254 770.799 149.183 769.444 152.045 770.373 154.645 770.691 155.535 771.255 156.317 772 156.9L763 156.9 763 161C763.332 160.96 763.666 160.94 764 160.94 768.418 160.94 772 164.522 772 168.94 772 173.358 768.418 176.94 764 176.94 763.666 176.937 763.332 176.914 763 176.87L763 182.9 789 182.9 789 156.9Z" fill="#3A82F6" fill-rule="nonzero" fill-opacity="1"/><path d="M760 136.28 760 125.9 732 125.9 732 153.9 743 153.9C741.741 154.844 741 156.326 741 157.9 741 160.661 743.239 162.9 746 162.9 748.761 162.9 751 160.661 751 157.9 751 156.326 750.259 154.844 749 153.9L760 153.9 760 143.62C757.849 145.638 754.501 145.638 752.35 143.62 750.323 141.64 750.285 138.393 752.264 136.366 752.293 136.337 752.321 136.308 752.35 136.28 754.501 134.262 757.849 134.262 760 136.28Z" fill="#3A82F6" fill-rule="nonzero" fill-opacity="1"/></g></g></g></g></g></svg>