<svg width="188" height="188" xmlns="http://www.w3.org/2000/svg" xmlns:xlink="http://www.w3.org/1999/xlink" xml:space="preserve" overflow="hidden"><g transform="translate(-3753 -756)"><g><g><g><g><path d="M122.129 136.5 59.567 136.5C51.7143 136.5 45.3483 142.866 45.3483 150.719 45.3483 158.571 51.7143 164.937 59.567 164.937L122.129 164.937C129.982 164.937 136.348 158.571 136.348 150.719 136.348 142.866 129.982 136.5 122.129 136.5ZM63.3587 156.406C60.2175 156.406 57.6712 153.86 57.6712 150.719 57.6712 147.577 60.2175 145.031 63.3587 145.031 66.4999 145.031 69.0462 147.577 69.0462 150.719 69.0462 153.86 66.4999 156.406 63.3587 156.406ZM90.8482 156.406C87.707 156.406 85.1608 153.86 85.1608 150.719 85.1608 147.577 87.707 145.031 90.8482 145.031 93.9895 145.031 96.5357 147.577 96.5357 150.719 96.5357 153.86 93.9895 156.406 90.8482 156.406ZM118.338 156.406C115.197 156.406 112.65 153.86 112.65 150.719 112.65 147.577 115.197 145.031 118.338 145.031 121.479 145.031 124.025 147.577 124.025 150.719 124.025 153.86 121.479 156.406 118.338 156.406Z" fill="#3A82F6" fill-rule="nonzero" fill-opacity="1" transform="matrix(1 0 0 1 3758 759)"/><path d="M103.948 53.0833C103.948 54.6538 102.675 55.927 101.105 55.927 99.5341 55.927 98.261 54.6538 98.261 53.0833 98.261 51.5127 99.5341 50.2395 101.105 50.2395 102.675 50.2395 103.948 51.5127 103.948 53.0833Z" fill="#3A82F6" fill-rule="nonzero" fill-opacity="1" transform="matrix(1 0 0 1 3758 759)"/><path d="M107.323 34.125 94.7916 34.125 94.7916 25.4989C98.4187 23.4048 99.6614 18.767 97.5673 15.1399 95.4731 11.5129 90.8354 10.2702 87.2083 12.3642 83.5811 14.4583 82.3384 19.0961 84.4326 22.7232 85.0982 23.8761 86.0554 24.8333 87.2083 25.4989L87.2083 34.125 74.6768 34.125C70.0847 34.1354 66.3645 37.8556 66.3541 42.4477L66.3541 63.7189C66.3645 68.311 70.0847 72.0312 74.6768 72.0416L107.323 72.0416C111.915 72.0312 115.635 68.311 115.646 63.7189L115.646 42.4477C115.635 37.8556 111.915 34.1354 107.323 34.125ZM81.5208 58.7708C78.3796 58.7708 75.8333 56.2245 75.8333 53.0833 75.8333 49.9421 78.3796 47.3958 81.5208 47.3958 84.662 47.3958 87.2083 49.9421 87.2083 53.0833 87.2083 56.2245 84.662 58.7708 81.5208 58.7708ZM100.479 58.7708C97.3379 58.7708 94.7916 56.2245 94.7916 53.0833 94.7916 49.9421 97.3379 47.3958 100.479 47.3958 103.62 47.3958 106.167 49.9421 106.167 53.0833 106.167 56.2245 103.62 58.7708 100.479 58.7708Z" fill="#3A82F6" fill-rule="nonzero" fill-opacity="1" transform="matrix(1 0 0 1 3758 759)"/><path d="M84.9901 53.0833C84.9901 54.6538 83.7169 55.927 82.1464 55.927 80.5758 55.927 79.3026 54.6538 79.3026 53.0833 79.3026 51.5127 80.5758 50.2395 82.1464 50.2395 83.7169 50.2395 84.9901 51.5127 84.9901 53.0833Z" fill="#3A82F6" fill-rule="nonzero" fill-opacity="1" transform="matrix(1 0 0 1 3758 759)"/><path d="M140.292 111.513 140.292 95.7205C140.292 91.0193 136.481 87.2083 131.779 87.2083L121.333 87.2083 121.333 77.7291 60.6666 77.7291 60.6666 89.1041 46.4289 89.1041C45.9159 89.1041 45.5 88.6881 45.5 88.1751L45.5 72.4587C52.0171 70.534 55.7399 63.6907 53.8153 57.1737 53.2992 55.4265 52.4017 53.8158 51.1875 52.4577L45.5 57.5006C46.2954 58.3656 46.7472 59.4916 46.7702 60.6666 46.7559 63.2842 44.6224 65.3946 42.0048 65.3804 39.3872 65.366 37.277 63.2326 37.2912 60.615 37.2973 59.4844 37.7073 58.3933 38.4475 57.5385L32.76 52.5525C28.2917 57.686 28.831 65.4697 33.9646 69.938 35.126 70.9488 36.4663 71.7331 37.9166 72.2501L37.9166 88.1751C37.9166 92.8764 41.7276 96.6874 46.4289 96.6874L60.6666 96.6874 60.6666 130.812 121.333 130.812 121.333 94.7916 131.779 94.7916C132.292 94.7916 132.708 95.2075 132.708 95.7205L132.708 111.513C126.233 113.608 122.682 120.555 124.776 127.03 125.301 128.651 126.155 130.145 127.286 131.419L132.974 126.376C132.189 125.516 131.756 124.393 131.76 123.229 131.763 120.611 133.886 118.491 136.504 118.493 139.121 118.496 141.242 120.619 141.239 123.237 141.238 124.385 140.821 125.494 140.064 126.357L145.752 131.343C150.237 126.239 149.736 118.465 144.631 113.979 143.369 112.869 141.891 112.03 140.292 111.513ZM113.75 104.271 108.479 104.271C108.296 104.304 108.122 104.375 107.968 104.479L102.166 110.413 97.7491 99.9482 89.5022 117.011 83.7199 94.7916 79.2647 104.271 70.1458 104.271 70.1458 100.479 76.857 100.479 84.7437 83.701 90.5828 106.034 97.9955 90.8672 103.456 103.797 105.351 101.901C106.184 101.058 107.297 100.552 108.479 100.479L113.75 100.479Z" fill="#3A82F6" fill-rule="nonzero" fill-opacity="1" transform="matrix(1 0 0 1 3758 759)"/></g></g></g><rect x="3820" y="843" width="57.9998" height="36.0001" fill="#3A82F6" fill-opacity="1"/><g><g><g><path d="M3848 868.5C3844.43 868.5 3841.5 865.575 3841.5 862 3841.5 858.425 3844.43 855.5 3848 855.5 3851.58 855.5 3854.5 858.425 3854.5 862 3854.5 865.575 3851.58 868.5 3848 868.5ZM3862.63 857.937C3862.3 856.746 3861.81 855.608 3861.22 854.579L3862.57 850.517 3859.48 847.429 3855.42 848.783C3854.34 848.188 3853.2 847.7 3852.01 847.375L3850.17 843.583 3845.83 843.583 3843.94 847.375C3842.75 847.7 3841.61 848.188 3840.58 848.783L3836.52 847.429 3833.43 850.517 3834.78 854.579C3834.19 855.662 3833.7 856.8 3833.38 857.992L3829.58 859.833 3829.58 864.167 3833.38 866.062C3833.7 867.254 3834.19 868.392 3834.78 869.421L3833.43 873.483 3836.52 876.571 3840.58 875.217C3841.66 875.812 3842.8 876.3 3843.99 876.625L3845.89 880.417 3850.22 880.417 3852.12 876.625C3853.31 876.3 3854.45 875.812 3855.48 875.217L3859.54 876.571 3862.63 873.483 3861.27 869.421C3861.87 868.337 3862.35 867.2 3862.68 866.008L3866.47 864.112 3866.47 859.779 3862.63 857.937Z" fill="#FFFFFF" fill-rule="nonzero" fill-opacity="1"/></g></g></g></g></g></svg>