<svg width="44" height="45" xmlns="http://www.w3.org/2000/svg" xmlns:xlink="http://www.w3.org/1999/xlink" xml:space="preserve" overflow="hidden"><g transform="translate(-420 -432)"><g><path d="M17.8658 11.9121C17.8658 14.9471 15.4055 17.4075 12.3704 17.4075 9.33538 17.4075 6.875 14.9471 6.875 11.9121 6.875 8.87705 9.33538 6.41667 12.3704 6.41667 15.4055 6.41667 17.8658 8.87705 17.8658 11.9121Z" fill="#3A82F6" fill-rule="nonzero" fill-opacity="1" transform="matrix(1 0 0 1.02273 420 432)"/><path d="M36.9646 7.27375 21.5417 11.1238 21.5417 15.5329 24.5896 16.2983 24.9058 17.6504C24.6051 17.7622 24.3327 17.939 24.1083 18.1683L19.6579 22.6142 17.5954 22.6142C16.5971 19.7454 13.4621 18.229 10.5933 19.2274 8.4276 19.981 6.95677 21.9992 6.9025 24.2917L6.9025 37.5833 17.875 37.5833 17.875 27.1975 20.625 27.1975C21.2332 27.1986 21.8169 26.9578 22.2475 26.5283L27.3671 21.4088C27.9261 20.8409 28.15 20.0234 27.9583 19.25L29.3333 19.5892 29.5213 19.5892C29.7319 19.5876 29.9312 19.4937 30.0667 19.3325L31.2812 17.9117 36.96 19.3325C37.2551 19.3788 37.5319 19.1772 37.5782 18.8821 37.5805 18.8673 37.5822 18.8524 37.5833 18.8375L37.5833 7.74125C37.5768 7.46795 37.35 7.25166 37.0767 7.25812 37.0389 7.25904 37.0013 7.26426 36.9646 7.27375ZM29.4388 18.5763 27.1975 18.0308C26.8334 17.7271 26.3827 17.5458 25.9096 17.5129L25.6942 16.5458 30.2225 17.655Z" fill="#3A82F6" fill-rule="nonzero" fill-opacity="1" transform="matrix(1 0 0 1.02273 420 432)"/><path d="M19.9558 15.2212C20.3254 15.2212 20.625 14.9216 20.625 14.5521L20.625 11.8021C20.625 11.4325 20.3254 11.1329 19.9558 11.1329 19.5863 11.1329 19.2867 11.4325 19.2867 11.8021L19.2867 14.5521C19.2867 14.9216 19.5863 15.2212 19.9558 15.2212Z" fill="#3A82F6" fill-rule="nonzero" fill-opacity="1" transform="matrix(1 0 0 1.02273 420 432)"/></g></g></svg>