<svg width="45" height="47" xmlns="http://www.w3.org/2000/svg" xmlns:xlink="http://www.w3.org/1999/xlink" xml:space="preserve" overflow="hidden"><g transform="translate(-480 -433)"><g><g><g><g><path d="M502.078 443.234C501 443.234 500.109 444.125 500.109 445.203 500.109 446.281 501 447.172 502.078 447.172 503.156 447.172 504.047 446.281 504.047 445.203 504.047 444.125 503.156 443.234 502.078 443.234Z" fill="#3A82F6" fill-rule="nonzero" fill-opacity="1"/><path d="M498.141 454.719C498.141 455.806 497.259 456.688 496.172 456.688 495.085 456.688 494.203 455.806 494.203 454.719 494.203 453.631 495.085 452.75 496.172 452.75 497.259 452.75 498.141 453.631 498.141 454.719Z" fill="#3A82F6" fill-rule="nonzero" fill-opacity="1"/><path d="M507.656 445.859 506.484 446.422C506.391 446.797 506.203 447.125 506.016 447.453L506.438 448.672 505.5 449.609 504.281 449.188C503.953 449.375 503.625 449.516 503.25 449.609L502.688 450.734 501.375 450.734 500.812 449.562C500.438 449.469 500.109 449.328 499.781 449.141L498.562 449.562 497.625 448.625 498.047 447.406C497.859 447.078 497.719 446.75 497.625 446.375L496.453 445.812 496.453 444.5 497.625 443.938C497.719 443.562 497.859 443.234 498.047 442.906L497.672 441.688 498.609 440.75 499.828 441.172C500.156 440.984 500.484 440.844 500.859 440.75L501.422 439.578 502.734 439.578 503.297 440.703C503.672 440.797 504 440.938 504.328 441.125L505.547 440.703 506.484 441.641 506.062 442.859C506.25 443.188 506.391 443.516 506.484 443.891L507.656 444.453 507.656 445.859ZM501.75 455.375 500.578 455.938C500.484 456.312 500.344 456.641 500.156 456.969L500.531 458.188 499.594 459.125 498.375 458.703C498.047 458.891 497.719 459.031 497.344 459.125L496.828 460.25 495.516 460.25 494.953 459.078C494.578 458.984 494.25 458.844 493.922 458.656L492.703 459.031 491.766 458.094 492.188 456.875C492 456.547 491.859 456.219 491.766 455.844L490.594 455.281 490.594 453.969 491.766 453.406C491.859 453.031 492 452.703 492.188 452.375L491.766 451.156 492.703 450.219 493.922 450.641C494.25 450.453 494.578 450.312 494.953 450.219L495.516 449.047 496.875 449.047 497.438 450.219C497.812 450.312 498.141 450.453 498.469 450.641L499.688 450.219 500.625 451.156 500.203 452.375C500.391 452.703 500.531 453.031 500.625 453.406L501.797 453.969 501.75 455.375ZM517.969 457.109 514.734 451.484 514.734 451.25C514.922 446.094 512.297 441.266 507.844 438.594 503.391 435.969 497.906 435.969 493.453 438.594 489 441.219 486.375 446.094 486.562 451.25 486.562 455.703 488.578 459.875 492.094 462.594L492.094 474.453 506.906 474.453 506.906 468.828 509.203 468.828C510.703 468.828 512.109 468.219 513.141 467.188 514.172 466.109 514.734 464.703 514.734 463.203L514.734 460.391 516.797 460.391C518.016 460.25 519.094 458.844 517.969 457.109Z" fill="#3A82F6" fill-rule="nonzero" fill-opacity="1"/></g></g></g></g></g></svg>