<svg width="55" height="54" xmlns="http://www.w3.org/2000/svg" xmlns:xlink="http://www.w3.org/1999/xlink" xml:space="preserve" overflow="hidden"><g transform="translate(-1013 -222)"><g><g><g><g><path d="M34.0871 27.0833C32.2563 25.5233 29.8783 24.7921 27.625 24.0879L27.625 10.9904C29.8128 11.1983 31.8573 12.1707 33.3992 13.7367L35.9992 11.245C33.7741 8.98154 30.7925 7.618 27.625 7.41542L27.625 2.70833 24.375 2.70833 24.375 7.62125C23.2621 7.83786 22.1883 8.22136 21.19 8.75875 17.0842 10.9958 14.9879 16.25 16.6725 20.6754 17.9779 24.0879 21.125 25.61 24.375 26.7529L24.375 40.9338C21.8563 40.625 19.7654 39.1788 18.0321 37.375L15.4321 39.8612C16.6701 41.266 18.1462 42.4414 19.7925 43.3333 21.2314 44.0178 22.7856 44.4275 24.375 44.5413L24.375 49.2917 27.625 49.2917 27.625 44.4167C31.3517 43.7938 34.775 41.5025 36.2483 37.9167 37.7217 34.3308 37.1854 29.7321 34.0871 27.0833ZM21.6667 21.5204C18.6875 19.0071 19.4133 14.1429 22.5712 12.1279 23.131 11.769 23.7381 11.49 24.375 11.2992L24.375 23.0479C23.3943 22.6912 22.4793 22.1751 21.6667 21.5204ZM31.4654 38.7563C30.4082 39.7898 29.0743 40.4953 27.625 40.7875L27.625 27.8471C29.7917 28.5892 32.2779 29.5317 33.1608 31.8392 34.0438 34.1467 33.1554 37.0338 31.4654 38.7563Z" fill="#3A82F6" fill-rule="nonzero" fill-opacity="1" transform="matrix(1.01923 0 0 1 1014 223)"/></g></g></g></g></g></svg>