<svg width="45" height="46" xmlns="http://www.w3.org/2000/svg" xmlns:xlink="http://www.w3.org/1999/xlink" xml:space="preserve" overflow="hidden"><g transform="translate(-408 -232)"><g><g><g><g><path d="M421.594 245.188C422.391 245.188 423 244.578 423 243.781L423 240.969C423 240.172 422.391 239.562 421.594 239.562 420.797 239.562 420.188 240.172 420.188 240.969L420.188 243.781C420.188 244.578 420.797 245.188 421.594 245.188Z" fill="#FF4565" fill-rule="nonzero" fill-opacity="1"/><path d="M417.375 264.875 424.875 264.875 424.875 268.625 417.375 268.625 417.375 264.875ZM417.375 259.25 424.875 259.25 424.875 263 417.375 263 417.375 259.25ZM417.375 253.625 424.875 253.625 424.875 257.375 417.375 257.375 417.375 253.625ZM434.25 253.625 434.25 257.375 426.75 257.375 426.75 253.625 434.25 253.625ZM443.625 253.625 443.625 257.375 436.125 257.375 436.125 253.625 443.625 253.625ZM443.625 263 436.125 263 436.125 259.25 443.625 259.25 443.625 263ZM443.625 268.625 436.125 268.625 436.125 264.875 443.625 264.875 443.625 268.625ZM426.75 263 426.75 259.25 434.25 259.25 434.25 263 426.75 263ZM426.75 268.625 426.75 264.875 434.25 264.875 434.25 268.625 426.75 268.625ZM414.562 271.438 446.438 271.438 446.438 250.812 414.562 250.812 414.562 271.438Z" fill="#FF4565" fill-rule="nonzero" fill-opacity="1"/><path d="M439.406 245.188C440.203 245.188 440.812 244.578 440.812 243.781L440.812 240.969C440.812 240.172 440.203 239.562 439.406 239.562 438.609 239.562 438 240.172 438 240.969L438 243.781C438 244.578 438.609 245.188 439.406 245.188Z" fill="#FF4565" fill-rule="nonzero" fill-opacity="1"/><path d="M442.688 242.375 442.688 243.781C442.688 245.609 441.234 247.062 439.406 247.062 437.578 247.062 436.125 245.609 436.125 243.781L436.125 242.375 424.875 242.375 424.875 243.781C424.875 245.609 423.422 247.062 421.594 247.062 419.766 247.062 418.312 245.609 418.312 243.781L418.312 242.375 414.562 242.375 414.562 248.938 446.438 248.938 446.438 242.375 442.688 242.375Z" fill="#FF4565" fill-rule="nonzero" fill-opacity="1"/></g></g></g></g></g></svg>