<svg width="45" height="45" xmlns="http://www.w3.org/2000/svg" xmlns:xlink="http://www.w3.org/1999/xlink" xml:space="preserve" overflow="hidden"><g transform="translate(-540 -232)"><g><path d="M564.727 250.305 560.597 250.305C560.209 250.305 559.894 250.62 559.894 251.008 559.894 251.396 560.209 251.711 560.597 251.711L564.727 251.711C565.115 251.711 565.43 251.396 565.43 251.008 565.43 250.62 565.115 250.305 564.727 250.305Z" fill="#3A82F6" fill-rule="nonzero" fill-opacity="1"/><path d="M562.659 254.031C563.452 254.031 564.108 253.416 564.159 252.625L561.164 252.625C561.214 253.415 561.868 254.03 562.659 254.031Z" fill="#3A82F6" fill-rule="nonzero" fill-opacity="1"/><path d="M562.659 236.894 562.659 236.894C559.386 236.916 556.727 239.545 556.669 242.819L556.669 243.025C556.685 243.744 556.826 244.455 557.086 245.125 557.328 245.751 557.681 246.329 558.127 246.831 558.682 247.533 559.154 248.298 559.533 249.109 559.611 249.266 559.771 249.365 559.945 249.367L565.383 249.367C565.558 249.365 565.717 249.266 565.795 249.109 566.174 248.298 566.646 247.533 567.202 246.831 567.645 246.328 567.995 245.75 568.237 245.125 568.491 244.461 568.632 243.759 568.655 243.048L568.655 242.842C568.606 239.559 565.943 236.916 562.659 236.894ZM567.272 242.988C567.252 243.541 567.142 244.087 566.944 244.605 566.759 245.069 566.494 245.498 566.161 245.87 565.634 246.509 565.183 247.205 564.816 247.947L560.508 247.947C560.139 247.205 559.686 246.508 559.158 245.87 558.826 245.497 558.563 245.069 558.38 244.605 558.182 244.087 558.071 243.541 558.052 242.988L558.052 242.819C558.095 240.3 560.141 238.277 562.659 238.262 565.179 238.277 567.226 240.3 567.272 242.819Z" fill="#3A82F6" fill-rule="nonzero" fill-opacity="1"/><path d="M560.4 244.342 562.88 239.5 562.88 242.303 565.453 241.792 562.88 246.531 562.88 243.78 560.4 244.342Z" fill="#3A82F6" fill-rule="nonzero" fill-opacity="1"/><path d="M576.019 257.092C576.019 259.106 574.386 260.739 572.372 260.739 570.358 260.739 568.725 259.106 568.725 257.092 568.725 255.078 570.358 253.445 572.372 253.445 574.386 253.445 576.019 255.078 576.019 257.092Z" fill="#3A82F6" fill-rule="nonzero" fill-opacity="1"/><path d="M556.566 257.092C556.566 259.106 554.933 260.739 552.919 260.739 550.905 260.739 549.272 259.106 549.272 257.092 549.272 255.078 550.905 253.445 552.919 253.445 554.933 253.445 556.566 255.078 556.566 257.092Z" fill="#3A82F6" fill-rule="nonzero" fill-opacity="1"/><path d="M578.934 263.898C577.884 263.08 576.668 262.5 575.372 262.197 574.396 261.912 573.388 261.755 572.372 261.728 571.353 261.726 570.341 261.884 569.372 262.197 568.401 262.456 567.473 262.854 566.616 263.378 566.559 263.444 566.508 263.509 566.447 263.57 567.81 263.937 569.085 264.575 570.197 265.445 571.074 266.085 571.586 267.111 571.57 268.197L571.57 269.031 579.666 269.031 579.666 265.361C579.68 264.782 579.406 264.234 578.934 263.898Z" fill="#3A82F6" fill-rule="nonzero" fill-opacity="1"/><path d="M553.73 268.197C553.731 267.142 554.214 266.146 555.042 265.492L555.098 265.445 555.159 265.403C556.284 264.603 557.527 263.986 558.844 263.575 558.75 263.477 558.666 263.373 558.577 263.27 557.753 262.788 556.864 262.427 555.938 262.197 554.962 261.912 553.953 261.754 552.938 261.728 551.919 261.726 550.907 261.884 549.938 262.197 548.659 262.55 547.453 263.126 546.375 263.898 545.913 264.245 545.637 264.784 545.625 265.361L545.625 269.031 553.73 269.031Z" fill="#3A82F6" fill-rule="nonzero" fill-opacity="1"/><path d="M555.352 271.844 555.352 268.197C555.354 267.623 555.624 267.084 556.083 266.739 557.159 265.963 558.365 265.387 559.645 265.038 560.614 264.723 561.627 264.565 562.645 264.569 563.662 264.593 564.67 264.75 565.645 265.038 566.944 265.337 568.162 265.918 569.213 266.739 569.682 267.074 569.954 267.62 569.939 268.197L569.939 271.844Z" fill="#3A82F6" fill-rule="nonzero" fill-opacity="1"/><path d="M566.292 259.928C566.292 261.942 564.659 263.575 562.645 263.575 560.631 263.575 558.998 261.942 558.998 259.928 558.998 257.914 560.631 256.281 562.645 256.281 564.659 256.281 566.292 257.914 566.292 259.928Z" fill="#3A82F6" fill-rule="nonzero" fill-opacity="1"/></g></g></svg>