<svg width="45" height="45" xmlns="http://www.w3.org/2000/svg" xmlns:xlink="http://www.w3.org/1999/xlink" xml:space="preserve" overflow="hidden"><g transform="translate(-476 -232)"><g><path d="M511.625 260.125 485.375 260.125 485.375 244.188 511.625 244.188ZM514.438 243.25C514.438 242.214 513.598 241.375 512.562 241.375L484.438 241.375C483.402 241.375 482.562 242.214 482.562 243.25L482.562 262.938 514.438 262.938Z" fill="#3A82F6" fill-rule="nonzero" fill-opacity="1"/><path d="M501.312 264.812 501.312 265.281C501.329 265.524 501.145 265.734 500.902 265.75 500.883 265.751 500.863 265.751 500.844 265.75L496.156 265.75C495.913 265.766 495.704 265.582 495.688 265.339 495.686 265.32 495.686 265.301 495.688 265.281L495.688 264.812 476.938 264.812 476.938 265.75C476.938 266.786 477.777 267.625 478.812 267.625L518.188 267.625C519.223 267.625 520.062 266.786 520.062 265.75L520.062 264.812Z" fill="#3A82F6" fill-rule="nonzero" fill-opacity="1"/><path d="M498.5 245.594C494.876 245.594 491.938 248.532 491.938 252.156 491.938 255.781 494.876 258.719 498.5 258.719 502.124 258.719 505.062 255.781 505.062 252.156 505.062 248.532 502.124 245.594 498.5 245.594ZM498.969 252.625 501.12 252.625C500.875 254.241 500.122 255.737 498.969 256.895ZM498.969 251.688 498.969 247.413C500.123 248.572 500.877 250.07 501.12 251.688ZM498.031 251.688 495.95 251.688C496.183 250.097 496.911 248.621 498.031 247.469ZM498.031 252.625 498.031 256.844C496.913 255.69 496.186 254.214 495.95 252.625ZM495.008 251.688 493.002 251.688C493.21 249.232 495.022 247.213 497.441 246.742 496.104 248.076 495.249 249.815 495.008 251.688ZM495.008 252.625C495.249 254.501 496.108 256.242 497.45 257.575 495.028 257.104 493.212 255.084 493.002 252.625ZM502.062 252.625 503.998 252.625C503.793 255.052 502.019 257.057 499.634 257.556 500.97 256.229 501.824 254.493 502.062 252.625ZM502.062 251.688C501.823 249.824 500.974 248.092 499.648 246.761 502.026 247.265 503.793 249.266 503.998 251.688Z" fill="#3A82F6" fill-rule="nonzero" fill-opacity="1"/></g></g></svg>