<svg width="183" height="188" xmlns="http://www.w3.org/2000/svg" xmlns:xlink="http://www.w3.org/1999/xlink" xml:space="preserve" overflow="hidden"><g transform="translate(-2062 -1022)"><g><path d="M2063 1055.33C2063 1038.58 2076.58 1025 2093.33 1025L2214.67 1025C2231.42 1025 2245 1038.58 2245 1055.33L2245 1176.67C2245 1193.42 2231.42 1207 2214.67 1207L2093.33 1207C2076.58 1207 2063 1193.42 2063 1176.67Z" fill="#3A82F7" fill-rule="evenodd" fill-opacity="1"/><g><g><g><path d="M2185.79 1084.76C2181.92 1084.76 2178.69 1081.53 2178.85 1077.49 2178.85 1073.62 2182.08 1070.39 2185.95 1070.39 2189.83 1070.39 2193.06 1073.62 2193.06 1077.49 2193.06 1079.43 2192.25 1081.21 2190.96 1082.5 2189.51 1083.95 2187.73 1084.76 2185.79 1084.76ZM2178.85 1062.32C2175.3 1063.61 2172.55 1066.35 2170.78 1069.58 2168.52 1073.94 2168.19 1078.95 2169.97 1083.47L2177.72 1100.26 2182.89 1110.92C2183.37 1112.05 2184.5 1112.69 2185.79 1112.69 2187.08 1112.69 2188.21 1112.05 2188.7 1110.92L2193.86 1100.26 2201.61 1083.63C2202.42 1081.69 2202.74 1079.59 2202.74 1077.49 2202.74 1066.19 2191.12 1057.64 2178.85 1062.32Z" fill="#FFFFFF" fill-rule="nonzero" fill-opacity="1"/><path d="M2150.27 1153.54 2124.44 1140.63 2124.44 1087.99 2150.27 1100.91 2150.27 1153.54ZM2117.98 1140.63 2098.6 1150.31 2098.6 1097.68 2117.98 1087.99 2117.98 1140.63ZM2207.43 1086.38 2203.39 1095.09 2208.4 1097.68 2208.4 1150.31 2189.02 1140.63 2189.02 1119.15 2182.56 1119.15 2182.56 1140.63 2156.73 1153.54 2156.73 1100.91 2168.19 1095.09 2164.16 1086.38 2153.5 1091.7 2121.21 1075.56 2088.92 1091.7 2088.92 1165.97 2121.21 1149.83 2153.5 1165.97 2185.79 1149.83 2218.08 1165.97 2218.08 1091.7 2207.43 1086.38Z" fill="#FFFFFF" fill-rule="nonzero" fill-opacity="1"/></g></g></g></g></g></svg>