<svg width="46" height="46" xmlns="http://www.w3.org/2000/svg" xmlns:xlink="http://www.w3.org/1999/xlink" xml:space="preserve" overflow="hidden"><g transform="translate(-416 -234)"><g><g><g><g><path d="M430.594 247.188C431.391 247.188 432 246.578 432 245.781L432 242.969C432 242.172 431.391 241.562 430.594 241.562 429.797 241.562 429.188 242.172 429.188 242.969L429.188 245.781C429.188 246.578 429.797 247.188 430.594 247.188Z" fill="#FF4565" fill-rule="nonzero" fill-opacity="1"/><path d="M426.375 266.875 433.875 266.875 433.875 270.625 426.375 270.625 426.375 266.875ZM426.375 261.25 433.875 261.25 433.875 265 426.375 265 426.375 261.25ZM426.375 255.625 433.875 255.625 433.875 259.375 426.375 259.375 426.375 255.625ZM443.25 255.625 443.25 259.375 435.75 259.375 435.75 255.625 443.25 255.625ZM452.625 255.625 452.625 259.375 445.125 259.375 445.125 255.625 452.625 255.625ZM452.625 265 445.125 265 445.125 261.25 452.625 261.25 452.625 265ZM452.625 270.625 445.125 270.625 445.125 266.875 452.625 266.875 452.625 270.625ZM435.75 265 435.75 261.25 443.25 261.25 443.25 265 435.75 265ZM435.75 270.625 435.75 266.875 443.25 266.875 443.25 270.625 435.75 270.625ZM423.562 273.438 455.438 273.438 455.438 252.812 423.562 252.812 423.562 273.438Z" fill="#FF4565" fill-rule="nonzero" fill-opacity="1"/><path d="M448.406 247.188C449.203 247.188 449.812 246.578 449.812 245.781L449.812 242.969C449.812 242.172 449.203 241.562 448.406 241.562 447.609 241.562 447 242.172 447 242.969L447 245.781C447 246.578 447.609 247.188 448.406 247.188Z" fill="#FF4565" fill-rule="nonzero" fill-opacity="1"/><path d="M451.688 244.375 451.688 245.781C451.688 247.609 450.234 249.062 448.406 249.062 446.578 249.062 445.125 247.609 445.125 245.781L445.125 244.375 433.875 244.375 433.875 245.781C433.875 247.609 432.422 249.062 430.594 249.062 428.766 249.062 427.312 247.609 427.312 245.781L427.312 244.375 423.562 244.375 423.562 250.938 455.438 250.938 455.438 244.375 451.688 244.375Z" fill="#FF4565" fill-rule="nonzero" fill-opacity="1"/></g></g></g></g></g></svg>