<svg width="188" height="188" xmlns="http://www.w3.org/2000/svg" xmlns:xlink="http://www.w3.org/1999/xlink" xml:space="preserve" overflow="hidden"><g transform="translate(-1631 -1017)"><g><path d="M1636 1051.33C1636 1034.58 1649.58 1021 1666.33 1021L1787.67 1021C1804.42 1021 1818 1034.58 1818 1051.33L1818 1172.67C1818 1189.42 1804.42 1203 1787.67 1203L1666.33 1203C1649.58 1203 1636 1189.42 1636 1172.67Z" fill="#3A82F7" fill-rule="evenodd" fill-opacity="1"/><g><g><g><path d="M1727.5 1103.04C1719.43 1103.04 1712.97 1096.58 1712.97 1088.51 1712.97 1080.44 1719.43 1073.98 1727.5 1073.98 1735.57 1073.98 1742.03 1080.44 1742.03 1088.51 1742.03 1096.58 1735.57 1103.04 1727.5 1103.04ZM1727.5 1054.6C1716.36 1054.6 1705.86 1060.09 1699.57 1069.46 1693.27 1078.66 1691.98 1090.45 1696.02 1100.94L1711.35 1134.85 1724.59 1162.62C1725.08 1163.75 1726.21 1164.4 1727.5 1164.4 1728.79 1164.4 1729.92 1163.75 1730.41 1162.62L1743.65 1134.85 1758.98 1100.94C1763.02 1090.45 1761.73 1078.66 1755.43 1069.46 1749.14 1060.09 1738.64 1054.6 1727.5 1054.6Z" fill="#FFFFFF" fill-rule="nonzero" fill-opacity="1"/></g></g></g></g></g></svg>