<svg width="184" height="188" xmlns="http://www.w3.org/2000/svg" xmlns:xlink="http://www.w3.org/1999/xlink" xml:space="preserve" overflow="hidden"><g transform="translate(-2277 -1017)"><g><path d="M2278 1050.17C2278 1033.51 2291.51 1020 2308.17 1020L2428.83 1020C2445.49 1020 2459 1033.51 2459 1050.17L2459 1171.83C2459 1188.49 2445.49 1202 2428.83 1202L2308.17 1202C2291.51 1202 2278 1188.49 2278 1171.83Z" fill="#3A82F7" fill-rule="evenodd" fill-opacity="1"/><g><g><g><path d="M2395.01 1149.25 2341.73 1149.25C2335.04 1149.25 2329.62 1154.67 2329.62 1161.36 2329.62 1168.05 2335.04 1173.47 2341.73 1173.47L2395.01 1173.47C2401.7 1173.47 2407.12 1168.05 2407.12 1161.36 2407.12 1154.67 2401.7 1149.25 2395.01 1149.25ZM2344.96 1166.2C2342.28 1166.2 2340.12 1164.03 2340.12 1161.36 2340.12 1158.68 2342.28 1156.52 2344.96 1156.52 2347.63 1156.52 2349.8 1158.68 2349.8 1161.36 2349.8 1164.03 2347.63 1166.2 2344.96 1166.2ZM2368.37 1166.2C2365.7 1166.2 2363.53 1164.03 2363.53 1161.36 2363.53 1158.68 2365.7 1156.52 2368.37 1156.52 2371.05 1156.52 2373.21 1158.68 2373.21 1161.36 2373.21 1164.03 2371.05 1166.2 2368.37 1166.2ZM2391.78 1166.2C2389.11 1166.2 2386.94 1164.03 2386.94 1161.36 2386.94 1158.68 2389.11 1156.52 2391.78 1156.52 2394.46 1156.52 2396.63 1158.68 2396.63 1161.36 2396.63 1164.03 2394.46 1166.2 2391.78 1166.2Z" fill="#FFFFFF" fill-rule="nonzero" fill-opacity="1"/><path d="M2379.53 1078.21C2379.53 1079.55 2378.44 1080.63 2377.11 1080.63 2375.77 1080.63 2374.68 1079.55 2374.68 1078.21 2374.68 1076.87 2375.77 1075.79 2377.11 1075.79 2378.44 1075.79 2379.53 1076.87 2379.53 1078.21Z" fill="#FFFFFF" fill-rule="nonzero" fill-opacity="1"/><path d="M2382.4 1062.06 2371.73 1062.06 2371.73 1054.72C2374.82 1052.93 2375.88 1048.98 2374.09 1045.89 2372.31 1042.8 2368.36 1041.75 2365.27 1043.53 2362.18 1045.31 2361.12 1049.26 2362.91 1052.35 2363.47 1053.33 2364.29 1054.15 2365.27 1054.72L2365.27 1062.06 2354.6 1062.06C2350.69 1062.07 2347.52 1065.24 2347.51 1069.15L2347.51 1087.27C2347.52 1091.18 2350.69 1094.35 2354.6 1094.35L2382.4 1094.35C2386.31 1094.35 2389.48 1091.18 2389.49 1087.27L2389.49 1069.15C2389.48 1065.24 2386.31 1062.07 2382.4 1062.06ZM2360.43 1083.05C2357.75 1083.05 2355.58 1080.88 2355.58 1078.21 2355.58 1075.53 2357.75 1073.36 2360.43 1073.36 2363.1 1073.36 2365.27 1075.53 2365.27 1078.21 2365.27 1080.88 2363.1 1083.05 2360.43 1083.05ZM2376.57 1083.05C2373.9 1083.05 2371.73 1080.88 2371.73 1078.21 2371.73 1075.53 2373.9 1073.36 2376.57 1073.36 2379.25 1073.36 2381.42 1075.53 2381.42 1078.21 2381.42 1080.88 2379.25 1083.05 2376.57 1083.05Z" fill="#FFFFFF" fill-rule="nonzero" fill-opacity="1"/><path d="M2363.38 1078.21C2363.38 1079.55 2362.3 1080.63 2360.96 1080.63 2359.62 1080.63 2358.54 1079.55 2358.54 1078.21 2358.54 1076.87 2359.62 1075.79 2360.96 1075.79 2362.3 1075.79 2363.38 1076.87 2363.38 1078.21Z" fill="#FFFFFF" fill-rule="nonzero" fill-opacity="1"/><path d="M2410.48 1127.97 2410.48 1114.52C2410.48 1110.52 2407.23 1107.27 2403.23 1107.27L2394.33 1107.27 2394.33 1099.2 2342.67 1099.2 2342.67 1108.89 2330.54 1108.89C2330.1 1108.89 2329.75 1108.53 2329.75 1108.09L2329.75 1094.71C2335.3 1093.07 2338.47 1087.24 2336.83 1081.69 2336.39 1080.2 2335.63 1078.83 2334.59 1077.68L2329.75 1081.97C2330.43 1082.71 2330.81 1083.67 2330.83 1084.67 2330.82 1086.9 2329 1088.69 2326.77 1088.68 2324.54 1088.67 2322.75 1086.85 2322.76 1084.62 2322.76 1083.66 2323.11 1082.73 2323.74 1082L2318.9 1077.76C2315.09 1082.13 2315.55 1088.76 2319.93 1092.56 2320.92 1093.42 2322.06 1094.09 2323.29 1094.53L2323.29 1108.09C2323.29 1112.1 2326.54 1115.34 2330.54 1115.34L2342.67 1115.34 2342.67 1144.41 2394.33 1144.41 2394.33 1113.73 2403.23 1113.73C2403.67 1113.73 2404.02 1114.08 2404.02 1114.52L2404.02 1127.97C2398.51 1129.75 2395.48 1135.67 2397.27 1141.19 2397.71 1142.57 2398.44 1143.84 2399.4 1144.92L2404.25 1140.63C2403.58 1139.9 2403.21 1138.94 2403.21 1137.95 2403.22 1135.72 2405.02 1133.91 2407.25 1133.91 2409.48 1133.92 2411.29 1135.73 2411.29 1137.95 2411.29 1138.93 2410.93 1139.88 2410.29 1140.61L2415.13 1144.86C2418.95 1140.51 2418.52 1133.89 2414.18 1130.07 2413.1 1129.12 2411.84 1128.41 2410.48 1127.97ZM2387.88 1121.8 2383.39 1121.8C2383.23 1121.83 2383.08 1121.89 2382.95 1121.98L2378.01 1127.03 2374.25 1118.12 2367.22 1132.65 2362.3 1113.73 2358.51 1121.8 2350.74 1121.8 2350.74 1118.57 2356.46 1118.57 2363.17 1104.28 2368.14 1123.3 2374.46 1110.39 2379.11 1121.4 2380.72 1119.78C2381.43 1119.07 2382.38 1118.64 2383.39 1118.57L2387.88 1118.57Z" fill="#FFFFFF" fill-rule="nonzero" fill-opacity="1"/></g></g></g></g></g></svg>