<svg width="184" height="183" xmlns="http://www.w3.org/2000/svg" xmlns:xlink="http://www.w3.org/1999/xlink" xml:space="preserve" overflow="hidden"><g transform="translate(-1851 -1022)"><g><path d="M1853 1053.33C1853 1036.58 1866.58 1023 1883.33 1023L2004.67 1023C2021.42 1023 2035 1036.58 2035 1053.33L2035 1174.67C2035 1191.42 2021.42 1205 2004.67 1205L1883.33 1205C1866.58 1205 1853 1191.42 1853 1174.67Z" fill="#3A82F7" fill-rule="evenodd" fill-opacity="1"/><g><g><g><path d="M77 128.333C48.7667 128.333 25.6667 105.233 25.6667 77 25.6667 48.7667 48.7667 25.6667 77 25.6667 105.233 25.6667 128.333 48.7667 128.333 77 128.333 105.233 105.233 128.333 77 128.333ZM77 16.0417C43.3125 16.0417 16.0417 43.3125 16.0417 77 16.0417 110.688 43.3125 137.958 77 137.958 110.688 137.958 137.958 110.688 137.958 77 137.958 43.3125 110.688 16.0417 77 16.0417Z" fill="#FFFFFF" fill-rule="nonzero" fill-opacity="1" transform="matrix(1.00649 0 0 1 1867 1037)"/><path d="M80.2083 44.9167 73.7917 44.9167 73.7917 77C73.7917 77.9625 74.1125 78.7646 74.7542 79.2458L97.3729 101.865 101.865 97.3729 80.2083 75.7167 80.2083 44.9167Z" fill="#FFFFFF" fill-rule="nonzero" fill-opacity="1" transform="matrix(1.00649 0 0 1 1867 1037)"/><path d="M80.2083 35.2917C80.2083 37.0636 78.7719 38.5 77 38.5 75.2281 38.5 73.7917 37.0636 73.7917 35.2917 73.7917 33.5198 75.2281 32.0833 77 32.0833 78.7719 32.0833 80.2083 33.5198 80.2083 35.2917Z" fill="#FFFFFF" fill-rule="nonzero" fill-opacity="1" transform="matrix(1.00649 0 0 1 1867 1037)"/><path d="M80.2083 118.708C80.2083 120.48 78.7719 121.917 77 121.917 75.2281 121.917 73.7917 120.48 73.7917 118.708 73.7917 116.936 75.2281 115.5 77 115.5 78.7719 115.5 80.2083 116.936 80.2083 118.708Z" fill="#FFFFFF" fill-rule="nonzero" fill-opacity="1" transform="matrix(1.00649 0 0 1 1867 1037)"/><path d="M38.5 77C38.5 78.7719 37.0636 80.2083 35.2917 80.2083 33.5198 80.2083 32.0833 78.7719 32.0833 77 32.0833 75.2281 33.5198 73.7917 35.2917 73.7917 37.0636 73.7917 38.5 75.2281 38.5 77Z" fill="#FFFFFF" fill-rule="nonzero" fill-opacity="1" transform="matrix(1.00649 0 0 1 1867 1037)"/><path d="M121.917 77C121.917 78.7719 120.48 80.2083 118.708 80.2083 116.936 80.2083 115.5 78.7719 115.5 77 115.5 75.2281 116.936 73.7917 118.708 73.7917 120.48 73.7917 121.917 75.2281 121.917 77Z" fill="#FFFFFF" fill-rule="nonzero" fill-opacity="1" transform="matrix(1.00649 0 0 1 1867 1037)"/></g></g></g></g></g></svg>