<svg width="45" height="46" xmlns="http://www.w3.org/2000/svg" xmlns:xlink="http://www.w3.org/1999/xlink" xml:space="preserve" overflow="hidden"><g transform="translate(-680 -234)"><g><g><g><g><path d="M716 264.812C713.938 263.125 711.312 262 708.688 261.25 706.812 260.688 704.75 260.312 702.5 260.312 700.438 260.312 698.375 260.688 696.312 261.25 693.688 262 691.062 263.312 689 264.812 688.062 265.562 687.5 266.688 687.5 267.812L687.5 275.312 717.5 275.312 717.5 267.812C717.5 266.688 716.938 265.562 716 264.812Z" fill="#FF4565" fill-rule="nonzero" fill-opacity="1"/><path d="M695.188 244.562C695.469 244.562 695.703 244.469 695.844 244.281L695.844 244.281C697.578 242.594 699.922 241.562 702.5 241.562 707.656 241.562 711.875 245.781 711.875 250.938L711.875 253.094 706.484 254.875C706.25 254.781 706.016 254.688 705.781 254.688 704.984 254.688 704.375 255.297 704.375 256.094 704.375 256.891 704.984 257.5 705.781 257.5 706.344 257.5 706.859 257.172 707.094 256.656L714.547 254.172C714.922 254.031 715.203 253.703 715.203 253.281L715.203 249.062C715.203 248.547 714.781 248.125 714.266 248.125L713.422 248.125C712.156 243.297 707.75 239.688 702.5 239.688 699.453 239.688 696.688 240.906 694.625 242.875 694.391 243.062 694.25 243.297 694.25 243.625 694.25 244.141 694.672 244.562 695.188 244.562Z" fill="#FF4565" fill-rule="nonzero" fill-opacity="1"/><path d="M709.953 251.734C710 251.453 710 251.219 710 250.938 710 246.812 706.625 243.438 702.5 243.438 698.375 243.438 695 246.812 695 250.938 695 255.062 698.375 258.438 702.5 258.438 702.641 258.438 702.828 258.438 702.969 258.391L702.969 256.094C702.969 255.672 703.062 255.25 703.25 254.828 703.578 254.172 704.141 253.656 704.891 253.422L709.953 251.734Z" fill="#FF4565" fill-rule="nonzero" fill-opacity="1"/></g></g></g></g></g></svg>