<svg width="45" height="45" xmlns="http://www.w3.org/2000/svg" xmlns:xlink="http://www.w3.org/1999/xlink" xml:space="preserve" overflow="hidden"><g transform="translate(-608 -232)"><g><path d="M620.656 262.938C620.656 264.75 619.187 266.219 617.375 266.219 615.563 266.219 614.094 264.75 614.094 262.938 614.094 261.125 615.563 259.656 617.375 259.656 619.187 259.656 620.656 261.125 620.656 262.938Z" fill="#3A82F6" fill-rule="nonzero" fill-opacity="1"/><path d="M647.844 262.938C647.844 264.75 646.375 266.219 644.562 266.219 642.75 266.219 641.281 264.75 641.281 262.938 641.281 261.125 642.75 259.656 644.562 259.656 646.375 259.656 647.844 261.125 647.844 262.938Z" fill="#3A82F6" fill-rule="nonzero" fill-opacity="1"/><path d="M609.875 243.25 636.125 243.25 636.125 254.5 609.875 254.5Z" fill="#3A82F6" fill-rule="nonzero" fill-opacity="1"/><path d="M639.875 247.938 642.688 247.938C643.531 247.938 644.281 248.5 644.469 249.297L645.406 252.531C645.406 252.578 645.453 252.578 645.453 252.625L639.875 252.625 639.875 247.938ZM642.688 246.062 638 246.062 638 252.625 638 255.438 638 262.938 639.875 262.938C639.875 260.359 641.984 258.25 644.562 258.25 647.141 258.25 649.25 260.359 649.25 262.938 650.281 262.938 651.125 262.094 651.125 261.062L651.125 256.375C651.125 255.766 650.844 255.25 650.375 254.875L647.891 253C647.562 252.766 647.328 252.391 647.234 252.016L646.297 248.781C645.828 247.188 644.328 246.062 642.688 246.062Z" fill="#3A82F6" fill-rule="nonzero" fill-opacity="1"/><path d="M636.125 262.938 622.062 262.938C622.062 260.359 619.953 258.25 617.375 258.25 614.797 258.25 612.688 260.359 612.688 262.938L609.875 262.938 609.875 256.375 636.125 256.375 636.125 262.938Z" fill="#3A82F6" fill-rule="nonzero" fill-opacity="1"/></g></g></svg>