<svg width="184" height="188" xmlns="http://www.w3.org/2000/svg" xmlns:xlink="http://www.w3.org/1999/xlink" xml:space="preserve" overflow="hidden"><g transform="translate(-1411 -1017)"><g><path d="M1413 1051.33C1413 1034.58 1426.58 1021 1443.33 1021L1564.67 1021C1581.42 1021 1595 1034.58 1595 1051.33L1595 1172.67C1595 1189.42 1581.42 1203 1564.67 1203L1443.33 1203C1426.58 1203 1413 1189.42 1413 1172.67Z" fill="#3A82F7" fill-rule="evenodd" fill-opacity="1"/><g><g><g><path d="M1514.8 1077.43C1514.8 1083.73 1509.8 1088.73 1503.5 1088.73 1497.2 1088.73 1492.2 1083.73 1492.2 1077.43 1492.2 1071.14 1497.2 1066.13 1503.5 1066.13 1509.8 1066.13 1514.8 1071.3 1514.8 1077.43" fill="#FFFFFF" fill-rule="nonzero" fill-opacity="1"/><path d="M1560.01 1083.89C1560.01 1090.19 1555.01 1095.19 1548.71 1095.19 1542.41 1095.19 1537.41 1090.19 1537.41 1083.89 1537.41 1077.59 1542.41 1072.59 1548.71 1072.59 1555.01 1072.59 1560.01 1077.59 1560.01 1083.89" fill="#FFFFFF" fill-rule="nonzero" fill-opacity="1"/><path d="M1469.59 1083.89C1469.59 1090.19 1464.59 1095.19 1458.29 1095.19 1451.99 1095.19 1446.99 1090.19 1446.99 1083.89 1446.99 1077.59 1451.99 1072.59 1458.29 1072.59 1464.59 1072.59 1469.59 1077.59 1469.59 1083.89" fill="#FFFFFF" fill-rule="nonzero" fill-opacity="1"/><path d="M1439.89 1156.87C1439.89 1133.3 1468.3 1114.24 1503.5 1114.24 1538.54 1114.24 1567.11 1133.3 1567.11 1156.87L1439.89 1156.87Z" fill="#FFFFFF" fill-rule="nonzero" fill-opacity="1"/><path d="M1454.42 1120.22C1461.2 1115.7 1469.11 1112.15 1477.67 1109.89L1477.67 1108.11C1477.67 1106.33 1476.86 1104.56 1475.73 1103.43 1475.24 1102.94 1474.11 1102.3 1472.66 1101.65 1463.78 1097.45 1453.29 1097.45 1444.24 1101.49 1442.63 1102.14 1441.34 1102.94 1440.69 1103.43 1439.72 1104.56 1438.92 1106.33 1438.92 1108.11L1438.92 1135.56C1442.63 1129.91 1447.8 1124.58 1454.42 1120.22" fill="#FFFFFF" fill-rule="nonzero" fill-opacity="1"/><path d="M1522.87 1108.27 1522.87 1101.65C1522.87 1099.88 1522.07 1098.1 1520.94 1096.97 1520.45 1096.48 1519.32 1095.84 1517.87 1095.19 1508.99 1090.99 1498.49 1090.99 1489.45 1095.03 1487.84 1095.68 1486.55 1096.48 1485.9 1096.97 1484.61 1098.1 1483.96 1099.88 1483.96 1101.65L1483.96 1108.27C1490.26 1106.98 1496.72 1106.33 1503.34 1106.33 1509.96 1106.33 1516.58 1107.14 1522.87 1108.27" fill="#FFFFFF" fill-rule="nonzero" fill-opacity="1"/><path d="M1568.08 1135.56 1568.08 1108.11C1568.08 1106.33 1567.28 1104.56 1566.15 1103.43 1565.66 1102.94 1564.53 1102.3 1563.08 1101.65 1554.2 1097.45 1543.7 1097.45 1534.66 1101.49 1533.05 1102.14 1531.76 1102.94 1531.11 1103.43 1529.82 1104.56 1529.17 1106.33 1529.17 1108.11L1529.17 1109.89C1537.73 1112.15 1545.64 1115.7 1552.42 1120.22 1559.2 1124.58 1564.37 1129.91 1568.08 1135.56" fill="#FFFFFF" fill-rule="nonzero" fill-opacity="1"/></g></g></g></g></g></svg>