<svg width="46" height="46" xmlns="http://www.w3.org/2000/svg" xmlns:xlink="http://www.w3.org/1999/xlink" xml:space="preserve" overflow="hidden"><g transform="translate(-630 -434)"><g><g><g><g><path d="M671.312 445.312 671.312 468.281 635.688 468.281 635.688 445.312 632.875 445.312 632.875 471.562 649.281 471.562C649.281 472.359 649.891 472.969 650.688 472.969L656.312 472.969C657.109 472.969 657.719 472.359 657.719 471.562L674.125 471.562 674.125 445.312 671.312 445.312Z" fill="#3A82F6" fill-rule="nonzero" fill-opacity="1"/><path d="M669.438 442.5 637.562 442.5 637.562 466.406 669.438 466.406 669.438 442.5ZM640.375 445.312 652.562 445.312 652.562 463.594 640.375 463.594 640.375 445.312ZM666.625 463.594 654.438 463.594 654.438 445.312 666.625 445.312 666.625 463.594Z" fill="#3A82F6" fill-rule="nonzero" fill-opacity="1"/><path d="M657.25 450 663.812 450 663.812 451.406 657.25 451.406Z" fill="#3A82F6" fill-rule="nonzero" fill-opacity="1"/><path d="M657.25 452.812 663.812 452.812 663.812 454.219 657.25 454.219Z" fill="#3A82F6" fill-rule="nonzero" fill-opacity="1"/><path d="M657.25 455.625 661.797 455.625 661.797 457.031 657.25 457.031Z" fill="#3A82F6" fill-rule="nonzero" fill-opacity="1"/></g></g></g></g></g></svg>