<svg width="188" height="188" xmlns="http://www.w3.org/2000/svg" xmlns:xlink="http://www.w3.org/1999/xlink" xml:space="preserve" overflow="hidden"><g transform="translate(-1384 -783)"><g><path d="M1387 878C1387 827.742 1427.74 787 1478 787 1528.26 787 1569 827.742 1569 878 1569 928.258 1528.26 969 1478 969 1427.74 969 1387 928.258 1387 878Z" fill="#FFEDEF" fill-rule="evenodd" fill-opacity="1"/><g><g><g><path d="M1449.52 841.708C1452.25 841.708 1454.33 839.623 1454.33 836.896L1454.33 827.271C1454.33 824.544 1452.25 822.458 1449.52 822.458 1446.79 822.458 1444.71 824.544 1444.71 827.271L1444.71 836.896C1444.71 839.623 1446.79 841.708 1449.52 841.708Z" fill="#FF4565" fill-rule="nonzero" fill-opacity="1"/><path d="M1435.08 909.083 1460.75 909.083 1460.75 921.917 1435.08 921.917 1435.08 909.083ZM1435.08 889.833 1460.75 889.833 1460.75 902.667 1435.08 902.667 1435.08 889.833ZM1435.08 870.583 1460.75 870.583 1460.75 883.417 1435.08 883.417 1435.08 870.583ZM1492.83 870.583 1492.83 883.417 1467.17 883.417 1467.17 870.583 1492.83 870.583ZM1524.92 870.583 1524.92 883.417 1499.25 883.417 1499.25 870.583 1524.92 870.583ZM1524.92 902.667 1499.25 902.667 1499.25 889.833 1524.92 889.833 1524.92 902.667ZM1524.92 921.917 1499.25 921.917 1499.25 909.083 1524.92 909.083 1524.92 921.917ZM1467.17 902.667 1467.17 889.833 1492.83 889.833 1492.83 902.667 1467.17 902.667ZM1467.17 921.917 1467.17 909.083 1492.83 909.083 1492.83 921.917 1467.17 921.917ZM1425.46 931.542 1534.54 931.542 1534.54 860.958 1425.46 860.958 1425.46 931.542Z" fill="#FF4565" fill-rule="nonzero" fill-opacity="1"/><path d="M1510.48 841.708C1513.21 841.708 1515.29 839.623 1515.29 836.896L1515.29 827.271C1515.29 824.544 1513.21 822.458 1510.48 822.458 1507.75 822.458 1505.67 824.544 1505.67 827.271L1505.67 836.896C1505.67 839.623 1507.75 841.708 1510.48 841.708Z" fill="#FF4565" fill-rule="nonzero" fill-opacity="1"/><path d="M1521.71 832.083 1521.71 836.896C1521.71 843.152 1516.74 848.125 1510.48 848.125 1504.22 848.125 1499.25 843.152 1499.25 836.896L1499.25 832.083 1460.75 832.083 1460.75 836.896C1460.75 843.152 1455.78 848.125 1449.52 848.125 1443.26 848.125 1438.29 843.152 1438.29 836.896L1438.29 832.083 1425.46 832.083 1425.46 854.542 1534.54 854.542 1534.54 832.083 1521.71 832.083Z" fill="#FF4565" fill-rule="nonzero" fill-opacity="1"/></g></g></g></g></g></svg>