<svg width="188" height="188" xmlns="http://www.w3.org/2000/svg" xmlns:xlink="http://www.w3.org/1999/xlink" xml:space="preserve" overflow="hidden"><g transform="translate(-1022 -1200)"><g><path d="M1026 1235.33C1026 1218.58 1039.58 1205 1056.33 1205L1177.67 1205C1194.42 1205 1208 1218.58 1208 1235.33L1208 1356.67C1208 1373.42 1194.42 1387 1177.67 1387L1056.33 1387C1039.58 1387 1026 1373.42 1026 1356.67Z" fill="#3A82F7" fill-rule="evenodd" fill-opacity="1"/><g><g><g><path d="M1119.36 1277.95 1119.36 1277.95 1128.45 1281.71C1128.77 1275.75 1133.87 1271.17 1139.84 1271.5 1143.99 1271.72 1147.65 1274.31 1149.24 1278.16 1150.78 1282.01 1150.06 1286.4 1147.35 1289.54L1158.3 1294.08 1158.49 1294.16 1174.62 1255.14 1135.49 1238.99 1129.4 1253.96 1128.93 1255.07 1128.8 1254.55C1127.02 1250.29 1122.13 1248.26 1117.86 1250.02 1115.98 1250.83 1114.45 1252.27 1113.54 1254.1 1112.03 1258.47 1114.34 1263.23 1118.71 1264.74 1120.65 1265.41 1122.76 1265.35 1124.65 1264.56L1125.17 1264.35 1124.86 1265.1Z" fill="#FFFFFF" fill-rule="nonzero" fill-opacity="1"/><path d="M1115.27 1335.22C1119.5 1333.82 1121.8 1329.25 1120.4 1325.02 1119 1320.79 1114.43 1318.49 1110.2 1319.89 1108.59 1320.42 1107.19 1321.45 1106.2 1322.82L1106.2 1308.29 1096.4 1308.29C1096.47 1308.82 1096.51 1309.36 1096.51 1309.9 1096.51 1317.04 1090.73 1322.82 1083.59 1322.82 1076.46 1322.82 1070.68 1317.04 1070.68 1309.9 1070.68 1309.36 1070.72 1308.82 1070.79 1308.29L1060.99 1308.29 1060.99 1350.27 1106.2 1350.27 1106.2 1332.51C1106.38 1332.75 1106.57 1332.99 1106.78 1333.22 1106.87 1333.38 1106.97 1333.54 1107.09 1333.68 1108.99 1335.51 1111.72 1336.22 1114.27 1335.54 1114.55 1335.54 1114.8 1335.38 1115.06 1335.3Z" fill="#FFFFFF" fill-rule="nonzero" fill-opacity="1"/><path d="M1135.26 1308.26C1135.51 1308.07 1135.75 1307.87 1135.97 1307.66 1136.15 1307.59 1136.31 1307.49 1136.44 1307.35 1138.42 1305.22 1139.08 1302.18 1138.15 1299.42L1138.15 1299.18C1136.65 1294.98 1132.03 1292.8 1127.83 1294.3 1123.63 1295.8 1121.45 1300.42 1122.95 1304.61 1123.46 1306.05 1124.37 1307.31 1125.57 1308.26L1111.04 1308.26 1111.04 1314.87C1111.58 1314.81 1112.12 1314.78 1112.66 1314.78 1119.79 1314.78 1125.57 1320.56 1125.57 1327.69 1125.57 1334.83 1119.79 1340.61 1112.66 1340.61 1112.12 1340.61 1111.58 1340.57 1111.04 1340.5L1111.04 1350.23 1153.02 1350.23 1153.02 1308.26Z" fill="#FFFFFF" fill-rule="nonzero" fill-opacity="1"/><path d="M1106.2 1274.96 1106.2 1258.2 1060.99 1258.2 1060.99 1303.41 1078.75 1303.41C1076.72 1304.94 1075.52 1307.33 1075.52 1309.87 1075.52 1314.33 1079.14 1317.94 1083.59 1317.94 1088.05 1317.94 1091.67 1314.33 1091.67 1309.87 1091.67 1307.33 1090.47 1304.94 1088.44 1303.41L1106.2 1303.41 1106.2 1286.81C1102.73 1290.07 1097.32 1290.07 1093.85 1286.81 1090.57 1283.62 1090.51 1278.37 1093.71 1275.1 1093.75 1275.05 1093.8 1275.01 1093.85 1274.96 1097.32 1271.7 1102.73 1271.7 1106.2 1274.96Z" fill="#FFFFFF" fill-rule="nonzero" fill-opacity="1"/></g></g></g></g></g></svg>