<svg width="184" height="188" xmlns="http://www.w3.org/2000/svg" xmlns:xlink="http://www.w3.org/1999/xlink" xml:space="preserve" overflow="hidden"><g transform="translate(-806 -1205)"><g><path d="M807 1238.33C807 1221.58 820.581 1208 837.334 1208L958.666 1208C975.419 1208 989 1221.58 989 1238.33L989 1359.67C989 1376.42 975.419 1390 958.666 1390L837.334 1390C820.581 1390 807 1376.42 807 1359.67Z" fill="#3A82F7" fill-rule="evenodd" fill-opacity="1"/><g><g><g><path d="M63.3646 71.5458C63.3646 79.5194 56.9007 85.9833 48.9271 85.9833 40.9535 85.9833 34.4896 79.5194 34.4896 71.5458 34.4896 63.5722 40.9535 57.1083 48.9271 57.1083 56.9007 57.1083 63.3646 63.5722 63.3646 71.5458Z" fill="#FFFFFF" fill-rule="nonzero" fill-opacity="1" transform="matrix(1 0 0 1.00649 821 1221)"/><path d="M116.302 141.167 116.302 126.729C116.361 124.443 115.279 122.278 113.415 120.954 109.259 117.702 104.44 115.402 99.2979 114.217 95.4425 113.058 91.4513 112.411 87.4271 112.292 83.3934 112.304 79.3872 112.954 75.5562 114.217 70.4871 115.604 65.7065 117.886 61.4396 120.954 59.6298 122.324 58.562 124.459 58.5521 126.729L58.5521 141.167Z" fill="#FFFFFF" fill-rule="nonzero" fill-opacity="1" transform="matrix(1 0 0 1.00649 821 1221)"/><path d="M101.865 94.0042C101.865 101.978 95.4007 108.442 87.4271 108.442 79.4535 108.442 72.9896 101.978 72.9896 94.0042 72.9896 86.0306 79.4535 79.5667 87.4271 79.5667 95.4007 79.5667 101.865 86.0306 101.865 94.0042Z" fill="#FFFFFF" fill-rule="nonzero" fill-opacity="1" transform="matrix(1 0 0 1.00649 821 1221)"/><path d="M57.5896 115.821 57.5896 115.821C62.0939 112.606 67.0736 110.116 72.3479 108.442 68.6999 104.64 66.6352 99.5932 66.5729 94.325L66.5729 93.6833C64.6988 92.8981 62.7683 92.2547 60.7979 91.7583 56.9425 90.5993 52.9513 89.952 48.9271 89.8333 44.8934 89.8457 40.8872 90.4954 37.0563 91.7583 32.0386 93.2815 27.2795 95.5528 22.9396 98.4958 21.0755 99.8199 19.9929 101.985 20.0521 104.271L20.0521 118.708 54.7021 118.708C55.4974 117.592 56.4734 116.616 57.5896 115.821Z" fill="#FFFFFF" fill-rule="nonzero" fill-opacity="1" transform="matrix(1 0 0 1.00649 821 1221)"/><path d="M130.499 12.8333 69.9096 12.8333C68.0553 12.851 66.5639 14.3638 66.5729 16.2181L66.5729 57.5254C66.5375 59.3856 68.0165 60.9224 69.8767 60.9578 69.8876 60.958 69.8987 60.9582 69.9096 60.9583L79.5346 60.9583 79.5346 74.4975 92.8331 60.9583 130.499 60.9583C132.356 60.9407 133.852 59.4305 133.852 57.5735L133.852 16.2181C133.852 14.3612 132.356 12.8509 130.499 12.8333ZM99.9235 54.9427C97.9567 54.9425 96.3624 53.348 96.3626 51.3811 96.3628 49.4143 97.9573 47.82 99.9242 47.8202 101.872 47.8204 103.458 49.3856 103.485 51.3333 103.52 53.2909 101.962 54.9068 100.004 54.9422 99.9774 54.9427 99.9505 54.9429 99.9235 54.9427ZM102.217 40.2646 102.217 45.3177 97.6456 45.3177 97.6456 35.8692 99.9235 35.8692C103.902 35.8692 106.469 33.5431 106.469 29.9658 106.531 26.4226 103.71 23.4993 100.166 23.4366 100.086 23.4351 100.005 23.4353 99.9235 23.4369 96.6242 23.1303 93.7011 25.5563 93.3946 28.8556 93.3603 29.2249 93.3603 29.5966 93.3946 29.9658L93.3946 30.3669 88.8227 30.3669 88.8227 29.9658C88.4762 24.1732 92.8912 19.1964 98.6838 18.8499 99.0968 18.8252 99.5106 18.8249 99.9235 18.849 105.992 18.7777 110.969 23.6393 111.04 29.7077 111.041 29.7937 111.041 29.8798 111.04 29.9658 111.196 35.1606 107.375 39.6215 102.217 40.2646Z" fill="#FFFFFF" fill-rule="nonzero" fill-opacity="1" transform="matrix(1 0 0 1.00649 821 1221)"/></g></g></g></g></g></svg>