<svg width="188" height="187" xmlns="http://www.w3.org/2000/svg" xmlns:xlink="http://www.w3.org/1999/xlink" xml:space="preserve" overflow="hidden"><g transform="translate(-3391 -1210)"><g><path d="M3396 1242.33C3396 1225.58 3409.58 1212 3426.33 1212L3547.67 1212C3564.42 1212 3578 1225.58 3578 1242.33L3578 1363.67C3578 1380.42 3564.42 1394 3547.67 1394L3426.33 1394C3409.58 1394 3396 1380.42 3396 1363.67Z" fill="#3A82F7" fill-rule="evenodd" fill-opacity="1"/><g><g><g><path d="M94.7916 131.192 94.7916 141.239 87.2083 141.239 87.2083 131.192C82.8478 129.675 79.6249 125.504 79.6249 120.385 79.6249 114.129 84.7437 109.01 90.9999 109.01 97.2562 109.01 102.375 114.129 102.375 120.385 102.375 125.314 99.152 129.485 94.7916 131.192ZM62.5624 61.6145C62.5624 45.8791 75.2645 33.1771 90.9999 33.1771 106.735 33.1771 119.437 45.8791 119.437 61.6145L119.437 82.6583 90.9999 80.5728 62.5624 82.6583 62.5624 61.6145ZM130.812 83.4166 130.812 61.6145C130.812 39.6229 112.992 21.8021 90.9999 21.8021 69.0083 21.8021 51.1875 39.6229 51.1875 61.6145L51.1875 83.4166 37.9166 84.3645 37.9166 156.406 90.9999 160.198 144.083 156.406 144.083 84.3645 130.812 83.4166Z" fill="#FFFFFF" fill-rule="nonzero" fill-opacity="1" transform="matrix(1 0 0 1 3396 1212)"/></g></g></g><path d="M3487.3 1292.49 3539 1297 3538.43 1276.69 3485 1275 3487.3 1292.49Z" fill="#3A82F6" fill-rule="evenodd" fill-opacity="1"/></g></g></svg>