<svg width="188" height="183" xmlns="http://www.w3.org/2000/svg" xmlns:xlink="http://www.w3.org/1999/xlink" xml:space="preserve" overflow="hidden"><g transform="translate(-1631 -1265)"><g><path d="M1636 1295.33C1636 1278.58 1649.58 1265 1666.33 1265L1787.67 1265C1804.42 1265 1818 1278.58 1818 1295.33L1818 1416.67C1818 1433.42 1804.42 1447 1787.67 1447L1666.33 1447C1649.58 1447 1636 1433.42 1636 1416.67Z" fill="#3A82F7" fill-rule="evenodd" fill-opacity="1"/><g><g><g><path d="M32.0833 20.8542 22.4583 20.8542 22.4583 133.146 133.146 133.146 133.146 123.521 32.0833 123.521 32.0833 20.8542Z" fill="#FFFFFF" fill-rule="nonzero" fill-opacity="1" transform="matrix(1.00649 0 0 1 1650 1279)"/><path d="M109.083 20.8542 133.146 20.8542 133.146 113.896 109.083 113.896Z" fill="#FFFFFF" fill-rule="nonzero" fill-opacity="1" transform="matrix(-1.00649 -1.22465e-16 1.2326e-16 -1 1893.8 1413.75)"/><path d="M75.3958 52.9375 99.4583 52.9375 99.4583 113.896 75.3958 113.896Z" fill="#FFFFFF" fill-rule="nonzero" fill-opacity="1" transform="matrix(-1.00649 -1.22465e-16 1.2326e-16 -1 1825.99 1445.83)"/><path d="M41.7083 81.8125 65.7708 81.8125 65.7708 113.896 41.7083 113.896Z" fill="#FFFFFF" fill-rule="nonzero" fill-opacity="1" transform="matrix(-1.00649 -1.22465e-16 1.2326e-16 -1 1758.18 1474.71)"/><path d="M93.0417 42.8954 93.0417 20.8542 71.0004 20.8542 79.7592 29.6129 41.0506 68.3215 45.5744 72.8452 84.2829 34.1527 93.0417 42.8954Z" fill="#FFFFFF" fill-rule="nonzero" fill-opacity="1" transform="matrix(1.00649 0 0 1 1650 1279)"/></g></g></g></g></g></svg>