<svg width="197" height="197" xmlns="http://www.w3.org/2000/svg" xmlns:xlink="http://www.w3.org/1999/xlink" xml:space="preserve" overflow="hidden"><g transform="translate(-522 -1196)"><g><path d="M531 1235.33C531 1218.58 544.581 1205 561.334 1205L682.666 1205C699.419 1205 713 1218.58 713 1235.33L713 1356.67C713 1373.42 699.419 1387 682.666 1387L561.334 1387C544.581 1387 531 1373.42 531 1356.67Z" fill="#3A82F7" fill-rule="evenodd" fill-opacity="1"/><g><g><g><path d="M97.5 20.3125C54.8437 20.3125 20.3125 54.8437 20.3125 97.5 20.3125 140.156 54.8437 174.687 97.5 174.687 140.156 174.687 174.687 140.156 174.687 97.5 174.687 54.8437 140.156 20.3125 97.5 20.3125ZM44.6875 97.5C44.6875 87.3437 47.5312 77.7968 52.6093 69.875L125.328 142.594C117.203 147.469 107.656 150.312 97.5 150.312 68.4531 150.312 44.6875 126.547 44.6875 97.5ZM142.391 125.125 69.875 52.6093C77.7968 47.5312 87.3437 44.6875 97.5 44.6875 126.547 44.6875 150.312 68.4531 150.312 97.5 150.312 107.656 147.469 117.203 142.391 125.125Z" fill="#FFFFFF" fill-rule="nonzero" fill-opacity="1" transform="matrix(1 0 0 1 524 1198)"/></g></g></g><g><g><g><path d="M92.271 59.1178C95.3824 54.6115 95.1678 48.4959 91.7345 44.2042 92.1637 42.9167 92.3782 41.6292 92.3782 40.3417 92.3782 34.2261 87.9793 29.0761 82.0782 27.8959 80.2543 22.6386 75.4261 19.2052 69.847 19.2052 68.8813 19.2052 67.8084 19.3125 66.8428 19.5271 64.5897 16.8448 61.2636 15.2354 57.8303 14.9136 54.2897 14.699 50.8563 15.8792 48.2813 18.2396 44.9553 15.9865 40.7709 15.3427 37.0157 16.5229 33.1532 17.7031 30.149 20.6 28.7542 24.4625 28.5396 24.4625 28.2177 24.4625 28.0032 24.4625 20.9219 24.4625 15.2354 30.0417 15.1281 37.123 15.1281 37.3375 15.1281 37.5521 15.1281 37.7667 10.8365 40.1271 8.36876 44.7407 8.69064 49.6761 9.1198 56.4355 15.1281 61.4782 21.9948 61.4782L38.625 61.4782C45.7063 61.4782 51.5001 67.1647 51.6074 74.2459L51.6074 87.9793 60.0834 87.9793 60.0834 78.323C60.0834 77.8939 60.0834 77.3574 60.0834 76.9282 60.0834 72.9584 59.9761 67.9157 62.7657 64.697 64.4824 62.873 66.4136 61.2636 68.4522 59.8688 70.0616 58.9032 71.4563 57.723 72.6366 56.3282 73.173 55.4699 73.7095 54.6115 74.0313 53.7532 71.7782 52.8949 69.4178 52.573 67.0574 52.8949 65.8772 53.0022 64.8043 52.2511 64.5897 51.0709 64.4824 49.8907 65.2334 48.8178 66.4136 48.6032 69.3105 48.174 72.2074 48.4959 74.997 49.5688 74.997 49.2469 74.997 49.0324 75.1043 48.7105 75.2116 46.9938 74.997 45.2771 74.4605 43.6678 72.9584 39.8053 69.2032 38.0886 65.6626 36.6938 65.0188 36.4792 64.3751 36.2646 63.5168 36.05L62.873 35.8355 62.7657 35.8355C61.9074 35.9428 61.1563 36.1573 60.298 36.4792L59.3324 36.6938 58.2594 36.9084C56.4355 39.0542 55.4699 41.8438 55.6844 44.7407 55.899 47.6376 57.2938 50.2126 59.4397 52.0365 60.298 52.7876 60.298 54.0751 59.6542 55.0407 59.0105 55.7917 57.723 55.899 56.8647 55.2553 55.5772 54.1824 54.5042 52.7876 53.6459 51.2855L53.4313 51.2855C50.4271 50.749 46.9938 50.2126 44.2042 48.3886 43.2386 47.7449 43.024 46.4574 43.6678 45.4917 44.3115 44.5261 45.599 44.2042 46.5646 44.848 48.174 45.8136 49.998 46.4574 51.9292 46.6719 51.7147 46.1355 51.6074 45.599 51.5001 44.9553 51.2855 42.5948 51.7147 40.1271 52.6803 37.9813 51.1782 38.1959 49.7834 38.3032 48.2813 38.3032 46.9938 38.3032 45.7063 38.1959 44.4188 37.9813 42.0584 40.8782 38.7323 43.024 35.0844 43.8824 30.2563 46.3501 25.75 49.4615 25.75 54.7188 25.75 55.899 24.7844 56.8647 23.6042 56.8647 22.424 56.8647 21.4584 55.899 21.4584 54.7188 21.5657 50.6417 23.3896 46.8865 26.5011 44.3115 23.9261 43.9896 21.5657 42.9167 19.849 40.9855 19.0979 40.0198 19.3125 38.7323 20.1709 37.9813 21.0292 37.2303 22.424 37.3375 23.175 38.1959 24.0334 39.2688 26.5011 40.2344 30.0417 40.1271 33.5823 40.1271 37.123 38.8396 39.8053 36.4792 36.6938 35.1917 34.1188 32.8313 32.5094 29.8271 31.8657 28.7542 32.2948 27.4667 33.2605 26.9302 34.3334 26.2865 35.6209 26.7157 36.1573 27.6813 39.3761 33.475 46.1355 35.0844 56.7574 32.6167 54.8261 31.0073 53.4313 28.4323 53.5386 24.3552 53.5386 23.175 54.6115 22.2094 55.7917 22.3167 56.9719 22.3167 57.9376 23.3896 57.8303 24.5698 57.6157 29.398 60.298 30.3636 64.5897 31.6511 65.2334 31.8657 65.8772 31.973 66.5209 32.1875 67.7011 29.5052 70.0616 27.4667 72.9584 26.7157 74.1386 26.3938 75.3188 27.1448 75.6407 28.325 75.9626 29.5052 75.2116 30.6855 74.0313 31.0073 72.5293 31.4365 71.3491 32.4021 70.598 33.7969 70.598 33.9042 70.598 33.9042 70.598 34.0115 73.9241 35.6209 76.8209 37.9813 78.323 41.9511 78.6449 42.8094 78.8595 43.6678 78.9668 44.5261 79.3959 44.2042 79.7178 43.7751 79.9324 43.2386 80.6834 41.6292 81.2199 40.0198 81.4345 38.1959 81.5418 37.4448 82.0782 36.8011 82.8293 36.4792 83.5803 36.1573 84.4386 36.3719 84.9751 36.9084 85.6189 37.4448 85.8334 38.1959 85.6189 39.0542 85.297 41.2001 84.6532 43.3459 83.5803 45.2771 82.5074 47.1011 80.898 48.6032 78.9668 49.6761 78.7522 52.3584 77.8939 55.0407 76.6064 57.4011 78.0011 59.0105 79.5032 60.4053 81.3272 61.4782 81.9709 61.9074 82.4001 62.6584 82.4001 63.4095 82.4001 64.1605 81.9709 64.9115 81.2199 65.2334 80.4689 65.5553 79.7178 65.5553 79.0741 65.1261 77.2501 63.9459 75.5334 62.4438 74.0313 60.8345 72.9584 61.6928 71.7782 62.5511 70.7053 63.3022 68.8813 64.4824 67.272 65.7699 65.8772 67.3792 64.1605 69.4178 64.2678 73.3876 64.2678 76.8209 64.2678 77.3574 64.2678 77.7866 64.2678 78.323L64.2678 87.9793 72.8511 87.9793C72.8511 74.0313 79.5032 73.2803 80.3616 73.0657 83.1511 72.3147 90.5543 68.4522 92.1637 60.5126 92.3782 60.0834 92.271 59.547 92.271 59.1178 92.1637 59.1178 92.1637 59.1178 92.271 59.1178Z" fill="#FFFFFF" fill-rule="nonzero" fill-opacity="1" transform="matrix(1 0 0 1.00971 572 1246)"/></g></g></g></g></g></svg>