<svg width="188" height="188" xmlns="http://www.w3.org/2000/svg" xmlns:xlink="http://www.w3.org/1999/xlink" xml:space="preserve" overflow="hidden"><defs><clipPath id="clip0"><path d="M2989.94 1266.83 3037.1 1294.32 3011.38 1338.45 2964.21 1310.96Z" fill-rule="nonzero" clip-rule="nonzero"/></clipPath><clipPath id="clip1"><path d="M2989.94 1266.83 3037.1 1294.32 3011.38 1338.45 2964.21 1310.96Z" fill-rule="nonzero" clip-rule="nonzero"/></clipPath><clipPath id="clip2"><path d="M2989.94 1266.83 3037.1 1294.32 3011.38 1338.45 2964.21 1310.96Z" fill-rule="nonzero" clip-rule="nonzero"/></clipPath><clipPath id="clip3"><path d="M2907.78 1294.16 2955.16 1267.04 2980.54 1311.37 2933.16 1338.49Z" fill-rule="nonzero" clip-rule="nonzero"/></clipPath><clipPath id="clip4"><path d="M2907.78 1294.16 2955.16 1267.04 2980.54 1311.37 2933.16 1338.49Z" fill-rule="nonzero" clip-rule="nonzero"/></clipPath><clipPath id="clip5"><path d="M2907.78 1294.16 2955.16 1267.04 2980.54 1311.37 2933.16 1338.49Z" fill-rule="nonzero" clip-rule="nonzero"/></clipPath></defs><g transform="translate(-2878 -1255)"><g><path d="M2881 1288.33C2881 1271.58 2894.58 1258 2911.33 1258L3032.67 1258C3049.42 1258 3063 1271.58 3063 1288.33L3063 1409.67C3063 1426.42 3049.42 1440 3032.67 1440L2911.33 1440C2894.58 1440 2881 1426.42 2881 1409.67Z" fill="#3A82F7" fill-rule="evenodd" fill-opacity="1"/><g><g><g><path d="M102.938 48.7238C102.477 45.9554 99.8603 44.0837 97.0917 44.5427L85.9719 46.3981C85.9719 46.3981 81.3334 34.0838 81.3334 33.9694 78.9696 26.6875 68.8284 26.6875 61 26.6875 53.1717 26.6875 43.094 26.6875 40.7811 33.9694 40.7811 34.0838 36.1044 46.3981 36.1044 46.3981L24.9846 44.5427C22.22 44.0538 19.5827 45.8986 19.0936 48.6631 18.6048 51.4277 20.4496 54.0652 23.2142 54.5541 23.2451 54.5596 23.2761 54.5646 23.3071 54.5696L38.5571 57.1113C38.8338 57.1618 39.1145 57.1874 39.3958 57.1875 41.5184 57.1892 43.4185 55.8717 44.1615 53.8834L47.2877 45.5086 48.2917 45.9533 48.2917 118.188 58.4584 118.188 58.4584 72.4375 63.5417 72.4375 63.5417 118.188 73.7084 118.188 73.7084 45.9661C74.0769 45.8136 74.4327 45.6611 74.7759 45.4958L77.9148 53.8834C78.6561 55.8674 80.5498 57.1838 82.6677 57.1875 82.9491 57.1874 83.2298 57.1618 83.5065 57.1113L98.7565 54.5696C101.525 54.1092 103.397 51.4924 102.938 48.7238Z" fill="#FFFFFF" fill-rule="nonzero" fill-opacity="1" transform="matrix(1.06557 0 0 1 2906 1312)"/><path d="M71.1667 13.9792C71.1667 19.5941 66.6149 24.1458 61 24.1458 55.3851 24.1458 50.8334 19.5941 50.8334 13.9792 50.8334 8.36427 55.3851 3.8125 61 3.8125 66.6149 3.8125 71.1667 8.36427 71.1667 13.9792Z" fill="#FFFFFF" fill-rule="nonzero" fill-opacity="1" transform="matrix(1.06557 0 0 1 2906 1312)"/></g></g></g><g><g><g><path d="M29.0168 41.6711C29.0168 43.6135 27.4422 45.188 25.4999 45.188 23.5576 45.188 21.9831 43.6135 21.9831 41.6711 21.9831 39.7288 23.5576 38.1543 25.4999 38.1543 27.4422 38.1543 29.0168 39.7288 29.0168 41.6711Z" fill="#FFFFFF" fill-rule="nonzero" fill-opacity="1" transform="matrix(1.07843 0 0 1 2944 1264)"/><path d="M27.6249 28.8734 27.6249 35.5937 23.3749 35.5937 23.3749 24.7987 25.4999 24.7987C30.1962 24.7987 33.2349 22.0362 33.2349 17.765 33.3299 13.588 30.0208 10.125 25.8439 10.03 25.7292 10.0274 25.6146 10.0274 25.4999 10.03 20.6549 10.03 17.765 13.2175 17.765 18.0625L13.5468 18.0625C13.5468 10.9118 18.3281 5.81186 25.4999 5.81186 32.0306 5.74104 37.3822 10.9778 37.453 17.5086 37.4539 17.594 37.4539 17.6795 37.453 17.765 37.453 23.7096 33.5218 28.0446 27.6249 28.8734Z" fill="#FFFFFF" fill-rule="nonzero" fill-opacity="1" transform="matrix(1.07843 0 0 1 2944 1264)"/></g></g></g><g clip-path="url(#clip0)"><g clip-path="url(#clip1)"><g clip-path="url(#clip2)"><path d="M29.0653 41.7407C29.0653 43.6863 27.4881 45.2635 25.5425 45.2635 23.597 45.2635 22.0198 43.6863 22.0198 41.7407 22.0198 39.7952 23.597 38.218 25.5425 38.218 27.4881 38.218 29.0653 39.7952 29.0653 41.7407Z" fill="#FFFFFF" fill-rule="nonzero" fill-opacity="1" transform="matrix(0.92319 0.538149 -0.503606 0.863933 2989.94 1266.83)"/><path d="M27.6711 28.9216 27.6711 35.6531 23.414 35.6531 23.414 24.8401 25.5425 24.8401C30.2466 24.8401 33.2904 22.073 33.2904 17.7946 33.3856 13.6107 30.0709 10.1419 25.887 10.0467 25.7722 10.0441 25.6574 10.0441 25.5425 10.0467 20.6894 10.0467 17.7946 13.2395 17.7946 18.0926L13.5695 18.0926C13.5695 10.9301 18.3587 5.82157 25.5425 5.82157 32.0841 5.75063 37.4446 10.9962 37.5156 17.5378 37.5165 17.6234 37.5165 17.709 37.5156 17.7946 37.5156 23.7492 33.5778 28.0915 27.6711 28.9216Z" fill="#FFFFFF" fill-rule="nonzero" fill-opacity="1" transform="matrix(0.92319 0.538149 -0.503606 0.863933 2989.94 1266.83)"/></g></g></g><g clip-path="url(#clip3)"><g clip-path="url(#clip4)"><g clip-path="url(#clip5)"><path d="M29.0653 41.7407C29.0653 43.6863 27.4881 45.2635 25.5425 45.2635 23.597 45.2635 22.0198 43.6863 22.0198 41.7407 22.0198 39.7952 23.597 38.218 25.5425 38.218 27.4881 38.218 29.0653 39.7952 29.0653 41.7407Z" fill="#FFFFFF" fill-rule="nonzero" fill-opacity="1" transform="matrix(0.927353 -0.530943 0.496863 0.867829 2907.78 1294.16)"/><path d="M27.6711 28.9216 27.6711 35.6531 23.414 35.6531 23.414 24.8401 25.5425 24.8401C30.2466 24.8401 33.2904 22.073 33.2904 17.7946 33.3856 13.6107 30.0709 10.1419 25.887 10.0467 25.7722 10.0441 25.6574 10.0441 25.5425 10.0467 20.6894 10.0467 17.7946 13.2395 17.7946 18.0926L13.5695 18.0926C13.5695 10.9301 18.3587 5.82157 25.5425 5.82157 32.0841 5.75063 37.4446 10.9962 37.5156 17.5378 37.5165 17.6234 37.5165 17.709 37.5156 17.7946 37.5156 23.7492 33.5778 28.0915 27.6711 28.9216Z" fill="#FFFFFF" fill-rule="nonzero" fill-opacity="1" transform="matrix(0.927353 -0.530943 0.496863 0.867829 2907.78 1294.16)"/></g></g></g></g></g></svg>