<svg width="184" height="184" xmlns="http://www.w3.org/2000/svg" xmlns:xlink="http://www.w3.org/1999/xlink" xml:space="preserve" overflow="hidden"><g transform="translate(-3015 -1507)"><g><path d="M3018 1540.17C3018 1523.51 3031.51 1510 3048.17 1510L3168.83 1510C3185.49 1510 3199 1523.51 3199 1540.17L3199 1660.83C3199 1677.49 3185.49 1691 3168.83 1691L3048.17 1691C3031.51 1691 3018 1677.49 3018 1660.83Z" fill="#3A82F7" fill-rule="evenodd" fill-opacity="1"/><g><g><g><path d="M3137.34 1576.17 3110.87 1530.13C3109.85 1528.3 3107.21 1528.3 3106.2 1530.13L3079.66 1576.17C3078.64 1577.99 3079.93 1580.23 3082.03 1580.23L3108.5 1580.23 3134.97 1580.23C3137.07 1580.23 3138.36 1577.99 3137.34 1576.17ZM3106.47 1540.96 3110.53 1540.96 3110.53 1564.66 3106.47 1564.66 3106.47 1540.96ZM3108.5 1574.14C3106.6 1574.14 3105.11 1572.65 3105.11 1570.75 3105.11 1568.85 3106.6 1567.36 3108.5 1567.36 3110.4 1567.36 3111.89 1568.85 3111.89 1570.75 3111.89 1572.65 3110.4 1574.14 3108.5 1574.14Z" fill="#FFFFFF" fill-rule="nonzero" fill-opacity="1"/></g></g></g><g><g><g><path d="M3090.58 1617.58 3078.67 1617.58 3078.67 1610 3090.58 1610 3090.58 1617.58ZM3106.83 1610 3106.83 1617.58 3094.92 1617.58 3094.92 1610 3106.83 1610ZM3123.08 1610 3123.08 1617.58 3111.17 1617.58 3111.17 1610 3123.08 1610ZM3139.33 1610 3139.33 1617.58 3127.42 1617.58 3127.42 1610 3139.33 1610ZM3139.33 1629.5 3127.42 1629.5 3127.42 1621.92 3139.33 1621.92 3139.33 1629.5ZM3139.33 1638.71 3127.42 1639.79 3127.42 1633.83 3139.33 1633.83 3139.33 1638.71ZM3090.58 1633.83 3090.58 1643.04 3078.67 1644.13 3078.67 1633.83 3090.58 1633.83ZM3090.58 1629.5 3078.67 1629.5 3078.67 1621.92 3090.58 1621.92 3090.58 1629.5ZM3106.83 1629.5 3094.92 1629.5 3094.92 1621.92 3106.83 1621.92 3106.83 1629.5ZM3111.17 1629.5 3111.17 1621.92 3123.08 1621.92 3123.08 1629.5 3111.17 1629.5ZM3106.83 1641.63 3094.92 1642.72 3094.92 1633.83 3106.83 1633.83 3106.83 1641.63ZM3111.17 1633.83 3123.08 1633.83 3123.08 1640.12 3111.17 1641.2 3111.17 1633.83ZM3145.83 1644.67 3145.83 1603.5 3078.67 1603.5 3078.67 1602.42C3078.67 1597 3074.33 1592.67 3068.92 1592.67 3067.07 1592.67 3065.67 1594.08 3065.67 1595.92 3065.67 1597.76 3067.07 1599.17 3068.92 1599.17 3070.76 1599.17 3072.17 1600.58 3072.17 1602.42L3072.17 1656.58C3072.17 1662 3076.5 1666.33 3081.92 1666.33L3085.17 1666.33 3132.83 1666.33 3142.58 1666.33C3144.43 1666.33 3145.83 1664.93 3145.83 1663.08 3145.83 1661.24 3144.43 1659.83 3142.58 1659.83L3081.92 1659.83C3080.07 1659.83 3078.67 1658.43 3078.67 1656.58L3078.67 1650.63 3145.83 1644.67Z" fill="#FFFFFF" fill-rule="nonzero" fill-opacity="1"/><path d="M3091.67 1672.83C3091.67 1676.42 3088.76 1679.33 3085.17 1679.33 3081.58 1679.33 3078.67 1676.42 3078.67 1672.83 3078.67 1669.24 3081.58 1666.33 3085.17 1666.33 3088.76 1666.33 3091.67 1669.24 3091.67 1672.83Z" fill="#FFFFFF" fill-rule="nonzero" fill-opacity="1"/><path d="M3139.33 1672.83C3139.33 1676.42 3136.42 1679.33 3132.83 1679.33 3129.24 1679.33 3126.33 1676.42 3126.33 1672.83 3126.33 1669.24 3129.24 1666.33 3132.83 1666.33 3136.42 1666.33 3139.33 1669.24 3139.33 1672.83Z" fill="#FFFFFF" fill-rule="nonzero" fill-opacity="1"/></g></g></g></g></g></svg>