<svg width="184" height="183" xmlns="http://www.w3.org/2000/svg" xmlns:xlink="http://www.w3.org/1999/xlink" xml:space="preserve" overflow="hidden"><g transform="translate(-1851 -1265)"><g><path d="M1853 1295.33C1853 1278.58 1866.58 1265 1883.33 1265L2004.67 1265C2021.42 1265 2035 1278.58 2035 1295.33L2035 1416.67C2035 1433.42 2021.42 1447 2004.67 1447L1883.33 1447C1866.58 1447 1853 1433.42 1853 1416.67Z" fill="#3A82F7" fill-rule="evenodd" fill-opacity="1"/><g><g><g><path d="M56.0002 26.2501C56.0002 33.9821 49.7321 40.2501 42.0001 40.2501 34.2681 40.2501 28.0001 33.9821 28.0001 26.2501 28.0001 18.5181 34.2681 12.25 42.0001 12.25 49.7321 12.25 56.0002 18.5181 56.0002 26.2501Z" fill="#FFFFFF" fill-rule="nonzero" fill-opacity="1" transform="matrix(1 0 0 1.01191 1901 1316)"/><path d="M70.0002 71.7502 70.0002 57.7502C70.0002 55.6502 68.9502 53.5501 67.2002 52.1501 63.3502 49.0001 58.4502 46.9001 53.5501 45.5001 50.0501 44.4501 46.2001 43.7501 42.0001 43.7501 38.1501 43.7501 34.3001 44.4501 30.4501 45.5001 25.5501 46.9001 20.6501 49.3501 16.8 52.1501 15.05 53.5501 14 55.6502 14 57.7502L14 71.7502 70.0002 71.7502Z" fill="#FFFFFF" fill-rule="nonzero" fill-opacity="1" transform="matrix(1 0 0 1.01191 1901 1316)"/></g></g></g><g><g><g><path d="M1974.38 1410 1913.63 1410 1913.63 1302 1974.38 1302 1974.38 1410ZM1937.25 1288.5 1950.75 1288.5C1952.61 1288.5 1954.13 1290.02 1954.13 1291.88 1954.13 1293.73 1952.61 1295.25 1950.75 1295.25L1937.25 1295.25C1935.39 1295.25 1933.88 1293.73 1933.88 1291.88 1933.88 1290.02 1935.39 1288.5 1937.25 1288.5ZM1981.12 1281.75 1906.88 1281.75C1905.02 1281.75 1903.5 1283.27 1903.5 1285.12L1903.5 1426.87C1903.5 1428.73 1905.02 1430.25 1906.88 1430.25L1981.12 1430.25C1982.98 1430.25 1984.5 1428.73 1984.5 1426.87L1984.5 1285.12C1984.5 1283.27 1982.98 1281.75 1981.12 1281.75Z" fill="#FFFFFF" fill-rule="nonzero" fill-opacity="1"/></g></g></g></g></g></svg>