<svg width="188" height="183" xmlns="http://www.w3.org/2000/svg" xmlns:xlink="http://www.w3.org/1999/xlink" xml:space="preserve" overflow="hidden"><g transform="translate(-1425 -1265)"><g><path d="M1428 1295.33C1428 1278.58 1441.58 1265 1458.33 1265L1579.67 1265C1596.42 1265 1610 1278.58 1610 1295.33L1610 1416.67C1610 1433.42 1596.42 1447 1579.67 1447L1458.33 1447C1441.58 1447 1428 1433.42 1428 1416.67Z" fill="#3A82F7" fill-rule="evenodd" fill-opacity="1"/><g><g><g><path d="M137.958 115.5C137.958 117.585 135.552 119.51 131.542 120.954L131.542 115.179C133.788 114.537 136.033 113.575 137.958 112.612L137.958 115.5ZM125.125 104.912 125.125 99.1375C127.371 98.4958 129.617 97.5333 131.542 96.5708L131.542 99.4583C131.542 101.544 129.135 103.469 125.125 104.912ZM125.125 122.879C123.2 123.36 120.954 123.681 118.708 124.002L118.708 117.746C120.794 117.425 123.04 117.104 125.125 116.783L125.125 122.879ZM112.292 101.704C114.377 101.383 116.623 101.062 118.708 100.742L118.708 106.837C116.783 107.319 114.537 107.64 112.292 107.96L112.292 101.704ZM112.292 124.804C110.206 124.965 108.121 125.125 105.875 125.125L105.875 118.708C107.8 118.708 110.046 118.548 112.292 118.388L112.292 124.804ZM99.4583 109.083 99.4583 102.667C101.383 102.667 103.629 102.506 105.875 102.346L105.875 108.763C103.79 108.923 101.704 108.923 99.4583 109.083ZM99.4583 125.125C97.2125 125.125 95.1271 124.965 93.0417 124.804L93.0417 118.708C94.1646 118.708 95.1271 118.708 96.25 118.708 97.2125 118.708 98.3354 118.708 99.4583 118.708L99.4583 125.125ZM86.625 102.346C88.7104 102.506 90.7958 102.667 93.0417 102.667L93.0417 109.083C90.7958 109.083 88.7104 108.923 86.625 108.763L86.625 102.346ZM86.625 124.002C84.3792 123.681 82.1333 123.36 80.2083 122.879L80.2083 117.746C82.2937 118.067 84.3792 118.227 86.625 118.388L86.625 124.002ZM73.7917 106.837 73.7917 100.581C75.8771 100.902 77.9625 101.383 80.2083 101.544L80.2083 107.96C77.9625 107.64 75.7167 107.319 73.7917 106.837ZM73.7917 120.954C69.7812 119.35 67.375 117.425 67.375 115.5L67.375 115.179C67.375 115.179 67.375 115.179 67.5354 115.179 68.0167 115.34 68.3375 115.5 68.8187 115.5 70.4229 115.981 72.0271 116.302 73.7917 116.623L73.7917 120.954ZM48.125 99.1375C49.2479 99.1375 50.2104 99.2979 51.3333 99.2979L51.3333 99.4583C51.3333 101.704 51.8146 103.95 52.9375 105.715 51.3333 105.715 49.7292 105.554 48.125 105.394L48.125 99.1375ZM41.7083 79.8875C43.7937 80.2083 45.8792 80.6896 48.125 80.85L48.125 87.2667C45.8792 86.9458 43.6333 86.625 41.7083 86.1437L41.7083 79.8875ZM41.7083 104.752C39.4625 104.431 37.2167 104.11 35.2917 103.629L35.2917 97.3729C37.3771 97.6937 39.4625 98.175 41.7083 98.3354L41.7083 104.752ZM28.875 78.6042 28.875 75.7167C30.8 76.6792 32.8854 77.4812 35.2917 78.1229L35.2917 84.0583C31.2812 82.6146 28.875 80.6896 28.875 78.6042ZM28.875 101.704C24.8646 100.1 22.4583 98.175 22.4583 96.25L22.4583 93.3625C24.3833 94.325 26.4688 95.1271 28.875 95.7687L28.875 101.704ZM22.4583 51.6542C24.3833 52.6167 26.4688 53.4187 28.875 54.0604L28.875 59.9958C24.8646 58.3917 22.4583 56.4667 22.4583 54.5417L22.4583 51.6542ZM41.7083 56.7875 41.7083 63.2042C39.4625 62.8833 37.2167 62.5625 35.2917 62.0812L35.2917 55.825C37.3771 56.1458 39.4625 56.4667 41.7083 56.7875ZM57.75 28.875C77.3208 28.875 93.0417 33.2062 93.0417 38.5 93.0417 43.7937 77.3208 48.125 57.75 48.125 38.1792 48.125 22.4583 43.7937 22.4583 38.5 22.4583 33.2062 38.1792 28.875 57.75 28.875ZM67.375 104.912C63.3646 103.308 60.9583 101.383 60.9583 99.4583L60.9583 96.5708C62.8833 97.5333 64.9688 98.3354 67.375 98.9771L67.375 104.912ZM86.625 59.9958 86.625 54.2208C88.8708 53.5792 91.1167 52.6167 93.0417 51.6542L93.0417 54.5417C93.0417 56.6271 90.6354 58.5521 86.625 59.9958ZM73.7917 63.0437 73.7917 56.7875C75.8771 56.4667 78.1229 56.1458 80.2083 55.825L80.2083 61.9208C78.2833 62.4021 76.0375 62.7229 73.7917 63.0437ZM60.9583 64.1667 60.9583 57.75C62.8833 57.75 65.1292 57.5896 67.375 57.4292L67.375 63.8458C65.2896 64.0062 63.2042 64.0062 60.9583 64.1667ZM48.125 63.8458 48.125 57.4292C50.2104 57.5896 52.2958 57.75 54.5417 57.75L54.5417 64.1667C52.2958 64.0062 50.2104 64.0062 48.125 63.8458ZM131.542 83.4167C131.542 88.7104 115.821 93.0417 96.25 93.0417 76.6792 93.0417 60.9583 88.7104 60.9583 83.4167 60.9583 78.1229 76.6792 73.7917 96.25 73.7917 115.821 73.7917 131.542 78.1229 131.542 83.4167ZM141.167 88.2292 141.167 83.4167C141.167 75.8771 135.231 70.4229 123.681 67.375 119.35 66.2521 114.377 65.2896 108.763 64.8083 108.923 64.1667 108.923 63.3646 108.923 62.5625 108.923 58.0708 106.837 54.2208 102.506 51.3333L102.506 38.5C102.506 30.9604 96.5708 25.5062 85.0208 22.4583 77.4812 20.3729 67.8562 19.25 57.5896 19.25 44.1146 19.25 12.6729 21.175 12.6729 38.5L12.6729 54.5417C12.6729 59.0333 14.7583 62.8833 19.0896 65.7708L19.0896 68.8187C15.2396 71.5458 12.6729 75.2354 12.6729 80.2083L12.6729 96.25C12.6729 103.79 18.6083 109.244 30.1583 112.292 37.6979 114.377 47.3229 115.5 57.5896 115.5 57.5896 123.04 63.525 128.494 75.075 131.542 82.6146 133.627 92.2396 134.75 102.506 134.75 115.981 134.75 147.423 132.825 147.423 115.5L147.423 99.4583C147.583 94.9667 145.498 91.1167 141.167 88.2292Z" fill="#FFFFFF" fill-rule="nonzero" fill-opacity="1" transform="matrix(1.00649 0 0 1 1441 1279)"/></g></g></g></g></g></svg>