<svg width="97" height="97" xmlns="http://www.w3.org/2000/svg" xmlns:xlink="http://www.w3.org/1999/xlink" xml:space="preserve" overflow="hidden"><g transform="translate(-1041 -317)"><g><g><g><g><path d="M1129.8 326.4C1128.4 325 1119.4 326.6 1111.9 328.6 1114.6 330.2 1117.4 332.4 1120.1 335.1 1122.9 337.9 1125.1 340.7 1126.7 343.5 1128.7 335.8 1131.3 327.8 1129.8 326.4Z" fill="#3A82F6" fill-rule="nonzero" fill-opacity="1"/><path d="M1074.1 354.9 1070.7 353.6C1069.3 353.1 1067.8 353.4 1066.7 354.4L1050.8 370.3C1048.2 372.9 1050.6 377.4 1054.2 376.6L1067.5 373.6C1068.6 368.6 1070.4 361.9 1074.1 354.9Z" fill="#3A82F6" fill-rule="nonzero" fill-opacity="1"/><path d="M1100.6 381C1093.9 384.5 1087.5 386.4 1082.3 387.4L1079.2 401.6C1078.4 405.2 1082.8 407.7 1085.5 405L1101.4 389.1C1102.4 388.1 1102.8 386.5 1102.2 385.1L1100.6 381Z" fill="#3A82F6" fill-rule="nonzero" fill-opacity="1"/><path d="M1106.5 330.4C1100.6 332.8 1093.9 336.9 1087.4 343.4 1075.5 355.3 1072 369.7 1071 377.9L1077.2 384.1C1085.4 383.1 1099.9 379.7 1111.8 367.8 1118.3 361.3 1122.4 354.7 1124.8 348.8 1123.5 345.5 1120.9 341.6 1117.2 337.8 1113.6 334.3 1109.8 331.7 1106.5 330.4ZM1111.6 352C1109.3 354.3 1105.5 354.3 1103.1 352 1100.8 349.7 1100.8 345.9 1103.1 343.5 1105.4 341.2 1109.2 341.2 1111.6 343.5 1113.9 345.9 1113.9 349.7 1111.6 352Z" fill="#3A82F6" fill-rule="nonzero" fill-opacity="1"/><path d="M1070.9 384.2C1069.3 382.6 1069.5 379.9 1066.2 383.2 1062.9 386.5 1058 394 1059.5 395.6 1061.1 397.2 1068.6 392.2 1071.9 388.9 1075.2 385.5 1072.5 385.7 1070.9 384.2Z" fill="#3A82F6" fill-rule="nonzero" fill-opacity="1"/></g></g></g></g></g></svg>