<svg width="188" height="188" xmlns="http://www.w3.org/2000/svg" xmlns:xlink="http://www.w3.org/1999/xlink" xml:space="preserve" overflow="hidden"><g transform="translate(-527 -1448)"><g><path d="M531 1543C531 1492.74 571.742 1452 622 1452 672.258 1452 713 1492.74 713 1543 713 1593.26 672.258 1634 622 1634 571.742 1634 531 1593.26 531 1543Z" fill="#DBE7FF" fill-rule="evenodd" fill-opacity="1"/><g><g><g><path d="M80.729 53.2811C80.729 55.0646 79.2832 56.5103 77.4998 56.5103 75.7164 56.5103 74.2707 55.0646 74.2707 53.2811 74.2707 51.4977 75.7164 50.052 77.4998 50.052 79.2832 50.052 80.729 51.4977 80.729 53.2811Z" fill="#3A82F6" fill-rule="nonzero" fill-opacity="1" transform="matrix(1 0 0 1 544 1465)"/><path d="M80.729 117.864C80.729 119.648 79.2832 121.093 77.4998 121.093 75.7164 121.093 74.2707 119.648 74.2707 117.864 74.2707 116.081 75.7164 114.635 77.4998 114.635 79.2832 114.635 80.729 116.081 80.729 117.864Z" fill="#3A82F6" fill-rule="nonzero" fill-opacity="1" transform="matrix(1 0 0 1 544 1465)"/><path d="M113.021 83.9582C113.021 85.7416 111.575 87.1873 109.791 87.1873 108.008 87.1873 106.562 85.7416 106.562 83.9582 106.562 82.1747 108.008 80.729 109.791 80.729 111.575 80.729 113.021 82.1747 113.021 83.9582Z" fill="#3A82F6" fill-rule="nonzero" fill-opacity="1" transform="matrix(1 0 0 1 544 1465)"/><path d="M48.4374 83.9582C48.4374 85.7416 46.9917 87.1873 45.2082 87.1873 43.4248 87.1873 41.9791 85.7416 41.9791 83.9582 41.9791 82.1747 43.4248 80.729 45.2082 80.729 46.9917 80.729 48.4374 82.1747 48.4374 83.9582Z" fill="#3A82F6" fill-rule="nonzero" fill-opacity="1" transform="matrix(1 0 0 1 544 1465)"/><path d="M80.729 61.354 74.2707 61.354 74.2707 83.9582C74.2707 84.7654 74.5936 85.5727 75.2394 86.2186L91.2238 102.203 95.7446 97.6821 80.729 82.6665 80.729 61.354Z" fill="#3A82F6" fill-rule="nonzero" fill-opacity="1" transform="matrix(1 0 0 1 544 1465)"/><path d="M77.4998 130.781C52.4738 130.781 32.2916 110.599 32.2916 85.5727 32.2916 60.5467 52.4738 40.3645 77.4998 40.3645 102.526 40.3645 122.708 60.5467 122.708 85.5727 122.708 110.599 102.526 130.781 77.4998 130.781L77.4998 130.781ZM115.765 46.177 120.609 41.3332C122.385 39.3957 122.385 36.4895 120.448 34.552 118.672 32.776 115.604 32.6145 113.666 34.3906L108.177 40.0416C100.427 34.8749 91.5467 31.6458 82.3436 30.9999L82.3436 24.2187 96.8748 24.2187 96.8748 14.5312 58.1249 14.5312 58.1249 24.2187 72.6561 24.2187 72.6561 30.8385C46.9843 33.0989 26.3177 52.9582 23.0885 78.63 19.8593 104.302 34.8749 128.682 59.2551 137.239 83.6352 145.797 110.599 136.432 124.323 114.474 138.047 92.5154 134.172 64.0988 115.765 46.177Z" fill="#3A82F6" fill-rule="nonzero" fill-opacity="1" transform="matrix(1 0 0 1 544 1465)"/></g></g></g></g></g></svg>