<svg width="188" height="188" xmlns="http://www.w3.org/2000/svg" xmlns:xlink="http://www.w3.org/1999/xlink" xml:space="preserve" overflow="hidden"><g transform="translate(-774 -1443)"><g><path d="M776 1537C776 1486.74 816.742 1446 867 1446 917.258 1446 958 1486.74 958 1537 958 1587.26 917.258 1628 867 1628 816.742 1628 776 1587.26 776 1537Z" fill="#DBE7FF" fill-rule="evenodd" fill-opacity="1"/><g><g><g><path d="M36.8958 22.4583 117.104 22.4583 117.104 131.542 36.8958 131.542 36.8958 22.4583ZM27.2708 141.167 126.729 141.167 126.729 12.8333 27.2708 12.8333 27.2708 141.167Z" fill="#3A82F6" fill-rule="nonzero" fill-opacity="1" transform="matrix(1.00649 0 0 1 790 1460)"/><path d="M80.2083 36.8958 107.479 36.8958 107.479 43.3125 80.2083 43.3125Z" fill="#3A82F6" fill-rule="nonzero" fill-opacity="1" transform="matrix(1.00649 0 0 1 790 1460)"/><path d="M80.2083 62.5625 107.479 62.5625 107.479 68.9792 80.2083 68.9792Z" fill="#3A82F6" fill-rule="nonzero" fill-opacity="1" transform="matrix(1.00649 0 0 1 790 1460)"/><path d="M80.2083 113.896 107.479 113.896 107.479 120.312 80.2083 120.312Z" fill="#3A82F6" fill-rule="nonzero" fill-opacity="1" transform="matrix(1.00649 0 0 1 790 1460)"/><path d="M80.2083 88.2292 107.479 88.2292 107.479 94.6458 80.2083 94.6458Z" fill="#3A82F6" fill-rule="nonzero" fill-opacity="1" transform="matrix(1.00649 0 0 1 790 1460)"/><path d="M70.2625 33.3667 65.7708 28.875 55.1833 39.4625 51.0125 35.2917 46.5208 39.7833 55.1833 48.4458Z" fill="#3A82F6" fill-rule="nonzero" fill-opacity="1" transform="matrix(1.00649 0 0 1 790 1460)"/><path d="M70.2625 59.0333 65.7708 54.5417 55.1833 65.1292 51.0125 60.9583 46.5208 65.45 55.1833 74.1125Z" fill="#3A82F6" fill-rule="nonzero" fill-opacity="1" transform="matrix(1.00649 0 0 1 790 1460)"/><path d="M70.2625 84.7 65.7708 80.2083 55.1833 90.7958 51.0125 86.625 46.5208 91.1167 55.1833 99.7792Z" fill="#3A82F6" fill-rule="nonzero" fill-opacity="1" transform="matrix(1.00649 0 0 1 790 1460)"/><path d="M70.2625 110.046 65.7708 105.554 55.1833 116.142 51.0125 111.971 46.5208 116.462 55.1833 125.125Z" fill="#3A82F6" fill-rule="nonzero" fill-opacity="1" transform="matrix(1.00649 0 0 1 790 1460)"/></g></g></g></g></g></svg>