<svg width="188" height="188" xmlns="http://www.w3.org/2000/svg" xmlns:xlink="http://www.w3.org/1999/xlink" xml:space="preserve" overflow="hidden"><g transform="translate(-1022 -1434)"><g><path d="M1026 1529C1026 1478.74 1066.52 1438 1116.5 1438 1166.48 1438 1207 1478.74 1207 1529 1207 1579.26 1166.48 1620 1116.5 1620 1066.52 1620 1026 1579.26 1026 1529Z" fill="#DBE7FF" fill-rule="evenodd" fill-opacity="1"/><g><g><g><path d="M138.854 114.635 134.01 119.479 22.6041 119.479 16.1458 113.021 16.1458 80.729 22.6041 74.2707 134.01 74.2707 138.854 79.1144 138.854 114.635ZM6.45832 64.5832 6.45832 129.166 148.541 129.166 148.541 64.5832 6.45832 64.5832Z" fill="#3A82F6" fill-rule="nonzero" fill-opacity="1" transform="matrix(1 0 0 1 1039 1440)"/><path d="M90.4165 96.8748C90.4165 105.792 84.6335 113.021 77.4998 113.021 70.3662 113.021 64.5832 105.792 64.5832 96.8748 64.5832 87.9577 70.3662 80.729 77.4998 80.729 84.6335 80.729 90.4165 87.9577 90.4165 96.8748Z" fill="#3A82F6" fill-rule="nonzero" fill-opacity="1" transform="matrix(1 0 0 1 1039 1440)"/><path d="M41.9791 96.8748C41.9791 99.5499 39.8105 101.719 37.1353 101.719 34.4602 101.719 32.2916 99.5499 32.2916 96.8748 32.2916 94.1997 34.4602 92.0311 37.1353 92.0311 39.8105 92.0311 41.9791 94.1997 41.9791 96.8748Z" fill="#3A82F6" fill-rule="nonzero" fill-opacity="1" transform="matrix(1 0 0 1 1039 1440)"/><path d="M122.708 96.8748C122.708 99.5499 120.539 101.719 117.864 101.719 115.189 101.719 113.021 99.5499 113.021 96.8748 113.021 94.1997 115.189 92.0311 117.864 92.0311 120.539 92.0311 122.708 94.1997 122.708 96.8748Z" fill="#3A82F6" fill-rule="nonzero" fill-opacity="1" transform="matrix(1 0 0 1 1039 1440)"/><path d="M106.401 33.4218 108.823 39.5572 118.51 37.6197 111.729 20.6666 24.8645 56.1874 74.5936 46.3384Z" fill="#3A82F6" fill-rule="nonzero" fill-opacity="1" transform="matrix(1 0 0 1 1039 1440)"/><path d="M98.005 58.1249 123.515 53.1197 124.646 58.1249 134.495 58.1249 131.265 41.6562 48.4374 58.1249Z" fill="#3A82F6" fill-rule="nonzero" fill-opacity="1" transform="matrix(1 0 0 1 1039 1440)"/></g></g></g></g></g></svg>