<svg width="98" height="97" xmlns="http://www.w3.org/2000/svg" xmlns:xlink="http://www.w3.org/1999/xlink" xml:space="preserve" overflow="hidden"><g transform="translate(-934 -113)"><g><g><g><g><path d="M999.42 186 966.42 186C962.278 186 958.92 189.358 958.92 193.5 958.92 197.642 962.278 201 966.42 201L999.42 201C1003.56 201 1006.92 197.642 1006.92 193.5 1006.92 189.358 1003.56 186 999.42 186ZM968.42 196.5C966.763 196.5 965.42 195.157 965.42 193.5 965.42 191.843 966.763 190.5 968.42 190.5 970.077 190.5 971.42 191.843 971.42 193.5 971.42 195.157 970.077 196.5 968.42 196.5ZM982.92 196.5C981.263 196.5 979.92 195.157 979.92 193.5 979.92 191.843 981.263 190.5 982.92 190.5 984.577 190.5 985.92 191.843 985.92 193.5 985.92 195.157 984.577 196.5 982.92 196.5ZM997.42 196.5C995.763 196.5 994.42 195.157 994.42 193.5 994.42 191.843 995.763 190.5 997.42 190.5 999.077 190.5 1000.42 191.843 1000.42 193.5 1000.42 195.157 999.077 196.5 997.42 196.5Z" fill="#3A82F6" fill-rule="nonzero" fill-opacity="1"/><path d="M989.83 142C989.83 142.828 989.158 143.5 988.33 143.5 987.502 143.5 986.83 142.828 986.83 142 986.83 141.172 987.502 140.5 988.33 140.5 989.158 140.5 989.83 141.172 989.83 142Z" fill="#3A82F6" fill-rule="nonzero" fill-opacity="1"/><path d="M991.61 132 985 132 985 127.45C986.913 126.345 987.569 123.899 986.464 121.986 985.359 120.073 982.913 119.417 981 120.522 979.087 121.626 978.431 124.073 979.536 125.986 979.887 126.594 980.392 127.099 981 127.45L981 132 974.39 132C971.968 132.005 970.005 133.968 970 136.39L970 147.61C970.005 150.032 971.968 151.995 974.39 152L991.61 152C994.032 151.995 995.995 150.032 996 147.61L996 136.39C995.995 133.968 994.032 132.005 991.61 132ZM978 145C976.343 145 975 143.657 975 142 975 140.343 976.343 139 978 139 979.657 139 981 140.343 981 142 981 143.657 979.657 145 978 145ZM988 145C986.343 145 985 143.657 985 142 985 140.343 986.343 139 988 139 989.657 139 991 140.343 991 142 991 143.657 989.657 145 988 145Z" fill="#3A82F6" fill-rule="nonzero" fill-opacity="1"/><path d="M979.83 142C979.83 142.828 979.158 143.5 978.33 143.5 977.502 143.5 976.83 142.828 976.83 142 976.83 141.172 977.502 140.5 978.33 140.5 979.158 140.5 979.83 141.172 979.83 142Z" fill="#3A82F6" fill-rule="nonzero" fill-opacity="1"/><path d="M1009 172.82 1009 164.49C1009 162.01 1006.99 160 1004.51 160L999 160 999 155 967 155 967 161 959.49 161C959.219 161 959 160.781 959 160.51L959 152.22C962.438 151.205 964.401 147.595 963.386 144.158 963.114 143.236 962.641 142.386 962 141.67L959 144.33C959.42 144.786 959.658 145.38 959.67 146 959.662 147.381 958.537 148.494 957.156 148.486 955.776 148.479 954.663 147.354 954.67 145.973 954.673 145.376 954.89 144.801 955.28 144.35L952.28 141.72C949.923 144.428 950.208 148.534 952.915 150.89 953.528 151.424 954.235 151.837 955 152.11L955 160.51C955 162.99 957.01 165 959.49 165L967 165 967 183 999 183 999 164 1004.51 164C1004.78 164 1005 164.219 1005 164.49L1005 172.82C1001.58 173.925 999.711 177.59 1000.82 181.005 1001.09 181.86 1001.54 182.648 1002.14 183.32L1005.14 180.66C1004.73 180.206 1004.5 179.614 1004.5 179 1004.5 177.619 1005.62 176.501 1007 176.502 1008.38 176.503 1009.5 177.624 1009.5 179.004 1009.5 179.61 1009.28 180.195 1008.88 180.65L1011.88 183.28C1014.25 180.588 1013.98 176.487 1011.29 174.121 1010.62 173.535 1009.84 173.093 1009 172.82ZM995 169 992.22 169C992.123 169.017 992.031 169.055 991.95 169.11L988.89 172.24 986.56 166.72 982.21 175.72 979.16 164 976.81 169 972 169 972 167 975.54 167 979.7 158.15 982.78 169.93 986.69 161.93 989.57 168.75 990.57 167.75C991.009 167.306 991.596 167.039 992.22 167L995 167Z" fill="#3A82F6" fill-rule="nonzero" fill-opacity="1"/></g></g></g></g></g></svg>